<?xml version="1.0" standalone="no"?>
<!DOCTYPE svg PUBLIC "-//W3C//DTD SVG 20010904//EN"
 "http://www.w3.org/TR/2001/REC-SVG-20010904/DTD/svg10.dtd">
<svg version="1.0" xmlns="http://www.w3.org/2000/svg"
 width="1186.000000pt" height="1186.000000pt" viewBox="0 0 1186.000000 1186.000000"
 preserveAspectRatio="xMidYMid meet">
<metadata>
Created by potrace 1.14, written by Peter Selinger 2001-2017
</metadata>
<g transform="translate(0.000000,1186.000000) scale(0.100000,-0.100000)"
fill="#000000" stroke="none">
<path d="M7108 11075 c-1 -1 -73 -6 -158 -10 -85 -3 -175 -8 -200 -10 -25 -2
-85 -7 -135 -10 -49 -4 -118 -10 -152 -14 -33 -4 -82 -7 -107 -7 -25 1 -46 -1
-46 -4 0 -4 -10 -6 -22 -6 -13 -1 -50 -4 -83 -8 -33 -4 -80 -9 -104 -11 -24
-2 -61 -7 -82 -10 -22 -3 -57 -7 -79 -10 -82 -10 -127 -16 -185 -25 -33 -5
-82 -12 -110 -16 -27 -3 -57 -7 -65 -9 -15 -3 -81 -13 -135 -21 -16 -3 -55 -9
-85 -14 -30 -5 -72 -12 -94 -16 -21 -3 -48 -8 -60 -10 -38 -7 -180 -33 -215
-39 -50 -8 -320 -64 -361 -75 -19 -5 -49 -12 -67 -15 -62 -10 -440 -107 -592
-151 -353 -103 -601 -195 -826 -304 -239 -116 -382 -225 -426 -326 -20 -45
-21 -94 -5 -181 3 -11 7 -43 11 -70 4 -26 13 -88 21 -138 8 -49 17 -103 20
-120 2 -16 9 -55 14 -85 5 -30 12 -71 15 -90 3 -19 21 -123 39 -231 l32 -197
-58 31 c-110 57 -222 45 -289 -30 -41 -47 -55 -82 -73 -184 -13 -77 -13 -87 2
-119 14 -29 27 -39 74 -55 54 -18 57 -21 64 -60 3 -22 8 -51 11 -65 2 -14 6
-33 9 -42 9 -29 -12 -22 -135 46 -123 68 -215 109 -237 104 -8 -2 14 -32 52
-73 182 -194 220 -239 236 -278 27 -66 23 -109 -12 -148 -63 -71 -97 -152
-115 -276 -4 -24 -8 -43 -9 -43 -2 0 -66 30 -142 66 -303 144 -550 224 -874
282 -100 18 -78 -7 67 -75 197 -93 262 -117 711 -263 122 -40 229 -78 237 -84
16 -12 15 -20 -20 -181 -4 -17 -9 -42 -12 -57 -6 -32 -2 -31 -74 -18 -30 5
-70 12 -89 16 -249 43 -412 37 -441 -18 -32 -60 116 -121 481 -199 58 -12 106
-23 108 -25 2 -1 -22 -36 -52 -78 -30 -42 -66 -100 -79 -129 -28 -63 -58 -86
-147 -117 -193 -67 -310 -162 -349 -282 -8 -24 -30 -52 -62 -79 -58 -49 -98
-112 -114 -182 -9 -42 -15 -51 -36 -53 -256 -33 -444 -84 -534 -144 l-30 -20
45 -1 c25 0 54 -2 64 -4 11 -2 85 -7 165 -10 81 -3 178 -8 216 -10 73 -5 71
-4 130 -77 31 -38 76 -65 149 -89 99 -33 107 -58 67 -214 l-17 -70 -50 -6
c-112 -14 -203 -80 -252 -182 -28 -59 -62 -174 -62 -210 0 -18 -29 -33 -83
-42 -18 -4 -87 -23 -153 -45 -67 -21 -142 -41 -166 -45 -28 -4 -49 -14 -57
-26 -11 -19 -10 -20 26 -14 32 6 227 45 298 61 11 2 39 6 62 9 l42 4 35 -63
c46 -81 87 -118 170 -147 71 -26 72 -27 56 -95 -5 -23 -12 -58 -14 -79 -3 -20
-6 -38 -8 -40 -2 -1 -54 -37 -116 -80 -118 -81 -132 -106 -43 -79 72 22 81 19
71 -16 -5 -16 -7 -30 -4 -30 2 0 -7 -24 -20 -52 -31 -69 -127 -272 -130 -276
-2 -1 -23 -5 -47 -8 -81 -10 -151 -35 -180 -63 -25 -25 -34 -48 -53 -134 -8
-36 -57 -81 -116 -108 -91 -41 -112 -53 -121 -72 -14 -25 -7 -30 25 -16 21 10
34 10 60 1 45 -17 66 -15 114 8 22 11 48 20 56 20 9 0 64 -24 122 -52 l106
-53 -6 -57 c-6 -53 -5 -59 21 -82 47 -43 139 -87 191 -90 99 -6 201 34 265
101 29 31 79 141 71 155 -12 18 14 6 37 -18 76 -80 123 -81 284 -3 61 29 112
53 115 54 5 0 82 37 123 57 16 8 17 5 11 -49 -25 -197 20 -263 170 -249 39 4
85 9 101 11 96 13 112 7 78 -30 -10 -11 -34 -40 -53 -65 -19 -25 -37 -47 -41
-50 -3 -3 -46 -59 -95 -125 -49 -66 -93 -125 -99 -131 -5 -6 -16 -20 -23 -30
-7 -11 -29 -41 -48 -69 -129 -180 -360 -542 -351 -551 6 -6 135 82 192 131
169 146 223 211 545 655 30 41 64 86 76 98 l21 24 32 -31 c38 -37 94 -67 139
-74 57 -9 161 27 258 89 45 29 59 33 65 23 4 -8 50 -72 103 -142 94 -126 104
-142 88 -149 -19 -8 -93 -107 -111 -149 -42 -95 -24 -174 58 -253 35 -34 39
-42 29 -60 -6 -12 -14 -23 -17 -26 -14 -11 -128 -198 -155 -254 -37 -78 -67
-166 -56 -166 15 0 74 65 130 144 30 43 60 83 65 89 6 7 32 44 58 84 57 86 84
100 144 73 53 -24 99 -33 151 -31 34 1 42 -2 43 -16 0 -10 2 -27 4 -38 11 -76
26 -164 29 -185 3 -14 12 -68 20 -120 9 -52 18 -106 21 -120 3 -14 7 -38 9
-55 5 -35 54 -328 61 -365 3 -14 8 -41 11 -60 10 -53 43 -128 85 -191 39 -58
157 -174 197 -192 12 -6 22 -13 22 -17 0 -16 255 -131 375 -170 121 -38 353
-90 470 -106 28 -3 58 -8 67 -9 9 -2 48 -7 85 -11 37 -3 79 -8 93 -9 195 -24
840 -25 1105 -1 22 2 76 7 120 10 44 4 91 9 105 11 14 2 52 6 85 10 72 7 107
11 205 24 41 6 95 13 120 17 450 60 1071 197 1424 315 66 22 126 42 131 43 6
1 55 19 110 41 55 22 103 38 108 37 4 -1 7 2 7 8 0 5 8 10 18 10 9 0 85 33
167 74 409 201 658 416 773 666 41 88 57 152 66 258 2 23 6 46 10 49 3 3 1 12
-4 18 -11 13 -35 168 -75 475 -2 19 -9 67 -14 105 -6 39 -13 93 -17 120 -3 28
-8 53 -11 58 -2 4 0 7 4 7 8 0 35 -23 101 -84 22 -20 35 -27 42 -20 16 16 -18
87 -101 210 l-73 108 -22 161 c-12 88 -21 161 -19 163 1 1 9 -12 18 -30 8 -18
27 -59 41 -90 29 -60 85 -118 115 -118 19 0 125 73 149 103 17 20 9 80 -19
133 -17 35 -17 40 -3 61 22 35 65 47 145 44 25 -1 28 -7 48 -91 51 -213 112
-291 218 -274 189 30 304 295 198 456 l-25 37 20 33 c47 81 27 125 -91 200
l-80 51 24 21 c43 37 60 83 54 146 -3 31 -13 72 -22 90 l-17 33 38 -23 c193
-116 509 -240 613 -240 27 0 27 5 -11 70 -64 113 -194 220 -406 335 -50 28
-90 54 -89 60 2 5 23 15 46 22 57 16 69 35 70 113 1 63 7 109 14 116 2 2 19
-7 38 -20 99 -72 143 -70 229 9 l59 55 66 -2 c85 -2 107 14 161 123 49 98 58
140 39 184 -23 58 -135 124 -208 125 -52 0 -87 22 -127 81 l-33 49 20 28 c31
43 53 89 53 114 0 40 -36 84 -99 123 -81 50 -83 65 -7 44 102 -28 203 -41 336
-41 138 0 233 16 344 59 l71 27 -50 21 c-96 42 -251 70 -370 67 -76 -2 -415
-1 -457 1 -37 2 -37 2 -21 26 9 14 39 48 68 76 104 101 118 187 44 263 -33 34
-160 103 -261 141 -107 42 -58 64 102 47 99 -11 105 36 19 149 -75 100 -89
126 -95 176 -11 90 -56 158 -127 194 -28 14 -58 25 -66 25 -31 0 -91 21 -86
30 3 5 47 30 98 56 181 92 253 147 263 200 11 58 -5 93 -70 156 -125 121 -241
179 -379 187 -4 1 36 37 90 80 126 101 211 185 298 291 34 42 115 158 115 165
0 11 -98 -4 -161 -25 -86 -28 -124 -47 -232 -117 -113 -75 -140 -81 -191 -47
-27 18 -51 25 -89 26 -56 1 -91 16 -174 70 l-52 34 54 32 c64 39 142 112 155
147 27 72 -7 156 -74 186 -47 21 -155 21 -194 0 -11 -6 -27 -11 -36 -11 -37 0
31 102 95 142 14 9 48 17 75 19 27 1 65 10 84 20 63 31 83 63 110 176 22 90
116 170 239 203 66 18 90 46 86 105 -4 50 18 108 50 135 22 18 47 68 40 79 -3
5 -37 -7 -76 -26 -65 -32 -130 -44 -175 -32 -21 6 -73 -14 -91 -34 -11 -12
-23 -37 -27 -55 -8 -43 -38 -85 -73 -103 -15 -8 -59 -33 -98 -56 -47 -28 -93
-46 -140 -56 l-70 -13 -65 -97 c-69 -104 -106 -141 -157 -163 -65 -28 -138 -7
-162 47 -23 52 -86 103 -206 165 -63 32 -115 62 -115 65 0 5 62 91 100 139 23
29 26 60 7 60 -11 0 -86 -77 -133 -135 -11 -15 -34 -21 -106 -30 -44 -5 -47
-4 -52 22 -7 35 -23 141 -31 208 -3 28 -7 61 -10 75 -2 14 -7 45 -10 70 -3 25
-7 54 -9 66 -2 12 -7 45 -11 75 -10 91 -17 143 -20 159 -4 21 -14 88 -20 135
-9 70 -21 157 -29 215 -5 33 -43 310 -52 375 -3 27 -11 84 -30 215 -8 59 -25
90 -69 128 -45 40 -100 69 -196 103 -77 27 -277 72 -379 85 -30 3 -62 8 -70 9
-8 1 -55 6 -105 10 -49 4 -106 10 -125 12 -41 5 -817 13 -822 8z"/>
<path d="M10404 3086 c27 -143 213 -313 405 -370 62 -18 121 -21 121 -6 0 14
-39 90 -54 106 -6 7 -29 34 -50 61 -94 114 -244 204 -373 222 -50 7 -53 6 -49
-13z"/>
<path d="M2995 2762 c-33 -8 -119 -67 -148 -102 -60 -70 -108 -203 -103 -281
2 -21 18 -69 36 -105 36 -73 75 -100 128 -88 58 14 225 148 268 215 53 84 66
215 27 267 -19 26 -126 87 -167 95 -11 2 -30 2 -41 -1z"/>
</g>
</svg>
