<?xml version="1.0" standalone="no"?>
<!DOCTYPE svg PUBLIC "-//W3C//DTD SVG 20010904//EN"
 "http://www.w3.org/TR/2001/REC-SVG-20010904/DTD/svg10.dtd">
<svg version="1.0" xmlns="http://www.w3.org/2000/svg"
 width="1100.000000pt" height="1100.000000pt" viewBox="0 0 1100.000000 1100.000000"
 preserveAspectRatio="xMidYMid meet">
<metadata>
Created by potrace 1.14, written by Peter Selinger 2001-2017
</metadata>
<g transform="translate(0.000000,1100.000000) scale(0.100000,-0.100000)"
fill="#000000" stroke="none">
<path d="M6268 10645 c-1 -2 -70 -6 -153 -10 -82 -4 -166 -8 -185 -10 -19 -1
-82 -6 -140 -10 -58 -3 -121 -9 -140 -11 -19 -3 -65 -7 -102 -9 -37 -2 -75 -6
-85 -8 -10 -3 -50 -8 -88 -11 -39 -4 -80 -8 -90 -10 -11 -2 -51 -7 -90 -11
-38 -3 -83 -8 -100 -11 -181 -25 -395 -56 -415 -59 -14 -2 -43 -7 -65 -10 -48
-7 -83 -13 -110 -19 -11 -2 -63 -11 -115 -20 -52 -9 -106 -18 -120 -21 -14 -3
-72 -14 -130 -25 -131 -24 -147 -28 -235 -46 -38 -9 -78 -17 -89 -19 -91 -19
-464 -111 -556 -137 -413 -115 -704 -220 -955 -344 -170 -84 -165 -81 -262
-152 -82 -60 -124 -105 -154 -164 -21 -41 -22 -91 -4 -200 2 -13 11 -68 19
-123 9 -55 18 -111 21 -125 3 -14 7 -38 9 -55 2 -16 9 -59 15 -95 6 -36 13
-78 16 -95 3 -16 8 -46 11 -65 4 -19 8 -44 9 -55 5 -36 26 -159 31 -185 2 -14
7 -47 11 -74 l6 -50 -29 21 c-78 54 -177 67 -249 34 -80 -37 -118 -96 -136
-213 -23 -143 -14 -166 77 -195 51 -16 52 -17 60 -62 9 -58 11 -69 19 -98 9
-38 9 -38 -210 82 -60 33 -162 71 -170 63 -5 -4 33 -47 149 -168 101 -107 140
-156 154 -199 20 -58 15 -95 -18 -132 -63 -71 -100 -157 -115 -269 -4 -25 -8
-47 -10 -49 -2 -2 -55 21 -117 52 -139 67 -275 125 -393 167 -92 32 -323 95
-385 105 -19 3 -64 12 -100 19 -63 13 -80 13 -80 -3 0 -11 241 -128 300 -146
14 -4 30 -11 35 -15 6 -5 136 -50 290 -100 353 -117 448 -149 457 -158 4 -4 1
-39 -8 -77 -14 -70 -16 -79 -29 -148 -7 -35 -10 -38 -34 -33 -14 3 -44 8 -66
11 -23 3 -52 8 -65 10 -14 3 -40 7 -59 10 -18 2 -51 7 -73 10 -82 13 -170 13
-229 1 -147 -31 -108 -93 106 -166 50 -17 293 -74 370 -87 17 -3 32 -7 34 -9
2 -2 -21 -36 -51 -76 -30 -40 -67 -98 -81 -129 -33 -72 -95 -115 -193 -135
-42 -8 -166 -81 -210 -124 -27 -26 -59 -73 -81 -119 -20 -42 -43 -80 -52 -85
-62 -37 -125 -131 -137 -205 -4 -23 -9 -43 -13 -45 -3 -2 -31 -7 -61 -10 -30
-4 -75 -9 -100 -12 -86 -10 -268 -63 -345 -99 -42 -20 -75 -38 -73 -40 6 -6
192 -18 444 -30 90 -4 134 -13 134 -29 0 -7 17 -31 38 -53 38 -39 86 -67 173
-97 47 -17 69 -44 63 -79 -6 -40 -36 -182 -39 -188 -3 -3 -27 -9 -55 -12 -97
-12 -187 -69 -235 -151 -29 -50 -65 -155 -74 -215 -7 -50 -11 -53 -106 -75
-96 -22 -95 -22 -140 -40 -22 -9 -78 -25 -124 -35 -72 -17 -109 -36 -97 -49 5
-4 130 17 201 35 33 8 71 17 85 19 14 2 36 6 50 8 96 21 92 22 133 -47 21 -36
45 -73 55 -84 19 -23 78 -54 135 -73 46 -14 51 -26 39 -76 -6 -22 -13 -60 -16
-85 -7 -46 -8 -46 -122 -124 -64 -42 -112 -81 -107 -86 4 -4 35 -1 68 6 32 8
61 12 64 10 22 -23 -145 -394 -177 -393 -41 2 -120 -15 -160 -34 -48 -23 -79
-64 -88 -118 -11 -69 -26 -92 -87 -131 -33 -22 -66 -39 -74 -39 -17 0 -93 -48
-93 -58 0 -17 12 -20 45 -9 27 8 39 7 57 -5 28 -18 40 -17 100 11 26 11 53 21
60 21 7 0 62 -23 121 -52 l108 -53 -6 -52 c-9 -77 -6 -80 125 -156 25 -15 53
-20 101 -21 156 0 280 86 314 221 l11 44 35 -31 c81 -73 125 -76 254 -15 44
20 114 53 155 72 41 19 88 42 104 50 l28 15 -8 -54 c-20 -133 -5 -204 53 -239
36 -23 55 -23 251 -3 34 4 62 2 62 -2 0 -5 -11 -22 -25 -39 -13 -16 -63 -79
-110 -140 -48 -60 -92 -117 -99 -126 -7 -9 -61 -83 -120 -165 -58 -82 -113
-158 -122 -170 -49 -69 -235 -368 -246 -396 -10 -26 -4 -23 65 24 110 75 211
166 312 280 39 45 63 74 124 153 17 22 34 45 39 50 4 6 46 64 94 130 79 111
111 153 168 227 l21 28 49 -41 c58 -49 108 -68 167 -63 49 3 143 42 220 91
l52 32 99 -132 c54 -73 101 -138 106 -145 5 -8 -4 -24 -24 -45 -47 -47 -85
-106 -102 -157 -26 -80 -6 -150 66 -220 l45 -45 -75 -115 c-138 -212 -217
-418 -123 -319 36 37 159 205 223 301 47 73 65 78 164 45 54 -18 90 -24 120
-20 36 4 42 2 43 -14 0 -10 2 -27 4 -38 2 -11 7 -40 11 -65 4 -25 8 -52 10
-60 6 -32 18 -106 20 -120 2 -16 2 -17 38 -230 13 -80 27 -163 30 -185 33
-219 29 -210 110 -259 39 -24 89 -53 111 -65 22 -11 36 -20 31 -21 -11 0 -149
74 -188 102 -33 23 -34 19 -7 -60 66 -195 240 -345 549 -475 104 -44 342 -106
500 -131 212 -33 246 -37 470 -53 198 -15 830 -7 994 12 17 2 65 6 106 10 41
3 89 7 105 9 17 3 57 7 90 10 118 13 150 17 175 21 14 3 48 7 75 10 28 3 73
10 100 15 28 5 68 12 90 15 79 11 172 27 270 45 55 11 111 21 125 24 21 4 180
37 245 52 11 2 33 7 48 9 187 35 678 182 912 275 217 85 550 270 676 374 44
36 157 145 189 182 52 60 146 213 155 252 2 10 13 46 24 81 16 52 20 84 16
165 -2 56 -6 119 -9 141 -3 22 -11 75 -16 117 -6 42 -12 85 -14 95 -2 10 -7
47 -11 83 -4 36 -9 73 -11 84 -2 10 -6 44 -10 75 -3 31 -8 58 -9 62 -2 3 -7
39 -10 80 l-7 74 38 -35 c79 -72 93 -82 103 -76 17 11 -17 83 -97 201 -75 112
-83 133 -97 265 -2 19 -8 64 -14 99 -16 97 -12 94 54 -52 23 -50 81 -107 109
-107 27 0 121 64 148 101 18 23 18 31 8 70 -7 24 -19 58 -28 76 -14 27 -14 34
-1 49 24 29 82 50 130 46 l44 -4 25 -100 c56 -235 137 -308 272 -246 110 51
179 162 179 288 0 81 -12 120 -48 162 -14 15 -13 22 10 68 26 52 26 77 -3 115
-17 23 -94 85 -105 85 -4 0 -20 10 -37 21 l-30 22 27 25 c56 51 70 134 35 210
-10 23 -18 42 -16 42 2 0 73 -36 157 -79 159 -81 312 -139 434 -164 39 -8 71
-13 73 -12 6 6 -41 90 -78 140 -63 85 -173 167 -357 267 -51 27 -95 53 -98 58
-2 4 14 13 38 19 81 23 84 31 86 193 1 54 7 55 77 6 75 -53 147 -44 201 26 33
42 65 55 128 53 85 -2 107 16 162 130 40 82 45 100 41 144 -4 34 -13 58 -29
75 -35 37 -140 84 -188 84 -23 0 -52 7 -65 15 -26 17 -86 97 -86 115 0 6 11
26 25 45 48 62 52 121 12 167 -31 34 -175 117 -217 124 -19 3 -58 29 -72 48
-21 28 -6 56 30 59 14 1 31 14 42 32 10 16 42 52 69 78 28 26 58 61 67 78 33
65 13 146 -48 193 -48 36 -174 101 -245 126 -35 13 -63 27 -63 32 0 7 56 24
70 21 3 -1 33 -4 67 -7 68 -6 113 7 113 33 0 19 -36 88 -56 109 -47 46 -92
132 -108 203 -26 118 -95 184 -213 204 -78 13 -72 28 32 78 305 148 345 234
174 381 -114 100 -204 146 -308 160 -24 3 -46 7 -47 9 -2 2 34 31 79 66 111
84 269 245 356 363 39 53 71 100 71 103 0 10 -87 -2 -150 -21 -79 -23 -152
-60 -251 -126 -111 -73 -127 -77 -182 -45 -26 16 -61 26 -92 28 -55 3 -94 19
-173 69 l-53 34 50 32 c145 91 192 171 155 264 -31 76 -126 106 -243 76 -34
-9 -64 -16 -66 -16 -11 0 8 47 30 76 39 51 92 80 156 86 31 3 70 13 87 22 43
22 79 80 92 144 11 59 55 129 103 166 42 31 92 56 113 56 32 0 103 41 110 63
4 12 6 38 5 58 -3 41 17 94 46 124 31 33 55 73 49 83 -3 6 -38 -6 -76 -25 -72
-34 -87 -37 -171 -33 -53 3 -105 -22 -115 -55 -4 -11 -6 -21 -5 -23 3 -6 -29
-74 -42 -86 -8 -8 -29 -23 -48 -33 -19 -10 -48 -28 -64 -39 -37 -27 -120 -62
-160 -68 -51 -7 -82 -23 -104 -54 -11 -17 -21 -33 -21 -38 0 -10 -74 -108
-103 -135 -82 -79 -186 -79 -227 1 -24 48 -95 108 -168 145 -122 60 -162 86
-152 98 98 119 135 187 102 187 -5 0 -41 -35 -81 -78 -65 -73 -74 -79 -113
-81 -24 -1 -54 -3 -68 -4 -26 -2 -26 -3 -44 138 -7 55 -14 104 -21 150 -3 17
-7 50 -10 75 -3 25 -11 78 -16 119 -6 41 -13 87 -14 103 -6 45 -25 181 -29
208 -4 24 -13 87 -22 160 -2 19 -6 49 -9 65 -9 60 -15 101 -20 140 -2 21 -9
74 -15 117 -6 43 -13 91 -15 107 -20 158 -40 272 -52 299 -51 109 -311 211
-633 248 -30 3 -63 8 -74 10 -10 2 -53 6 -95 10 -42 3 -96 8 -121 11 -53 5
-827 13 -832 8z m-2748 -9690 c14 -8 21 -14 15 -14 -5 0 -21 6 -35 14 -14 8
-20 14 -15 14 6 0 21 -6 35 -14z"/>
<path d="M10095 5562 c-20 -20 14 -66 78 -106 78 -48 371 -83 539 -64 122 13
292 68 272 87 -10 10 -154 63 -154 56 0 -2 -14 0 -30 5 -48 14 -176 23 -270
20 -124 -4 -296 -3 -368 2 -34 3 -64 2 -67 0z"/>
<path d="M9570 2663 c0 -44 79 -173 136 -223 44 -38 125 -95 164 -115 54 -27
151 -55 192 -55 32 0 36 2 31 23 -10 37 -88 149 -140 198 -61 58 -150 117
-223 147 -60 25 -160 41 -160 25z"/>
<path d="M2115 2308 c-55 -28 -126 -104 -154 -164 -13 -27 -30 -83 -39 -124
-15 -73 -15 -77 8 -139 13 -35 38 -79 57 -98 30 -32 37 -35 73 -30 52 7 134
62 226 152 59 59 74 80 90 130 23 75 23 161 0 197 -23 35 -144 98 -187 98 -19
-1 -52 -10 -74 -22z"/>
</g>
</svg>
