<?xml version="1.0" encoding="UTF-8" standalone="no"?>
<svg
   width="593"
   height="516"
   viewBox="0 0 593 516"
   fill="none"
   version="1.1"
   id="svg241"
   sodipodi:docname="logo.svg"
   inkscape:version="1.1.2 (b8e25be833, 2022-02-05)"
   xmlns:inkscape="http://www.inkscape.org/namespaces/inkscape"
   xmlns:sodipodi="http://sodipodi.sourceforge.net/DTD/sodipodi-0.dtd"
   xmlns="http://www.w3.org/2000/svg"
   xmlns:svg="http://www.w3.org/2000/svg">
  <defs
     id="defs245">
    <mask
       maskUnits="userSpaceOnUse"
       id="mask27284">
      <path
         d="m 412.299,189.466 30.077,1.645 c 0,0 -0.635,189.408 -5.283,190.927 -118.173,38.346 -191.011,26.208 -191.011,26.208 l -54.652,-185.101 32.854,-7.564 -17.979,-54.39 c 0,0 82.844,-30.034 206.864,-28.946 2.434,0.021 -0.87,57.221 -0.87,57.221 z"
         fill="#19181b"
         id="path27286"
         style="fill:#ffffff" />
    </mask>
  </defs>
  <mask
     id="mask0_355_3130"
     style="mask-type:alpha"
     maskUnits="userSpaceOnUse"
     x="191"
     y="132"
     width="252"
     height="279">
    <path
       d="M412.299 189.466L442.376 191.111C442.376 191.111 441.741 380.519 437.093 382.038C318.92 420.384 246.082 408.246 246.082 408.246L191.43 223.145L224.284 215.581L206.305 161.191C206.305 161.191 289.149 131.157 413.169 132.245C415.603 132.266 412.299 189.466 412.299 189.466Z"
       fill="#1A191C"
       id="path232" />
  </mask>
  <g
     inkscape:groupmode="layer"
     id="layer3"
     inkscape:label="Flame"
     style="display:inline">
    <g
       inkscape:groupmode="layer"
       id="layer6"
       inkscape:label="Red"
       style="display:inline">
      <path
         style="display:inline;fill:#b03025;fill-opacity:1"
         d="m 41.8164,368.762 c 6.6265,-4.583 2.4629,-0.338 9.1021,-4.903 1.6923,-1.163 2.8557,-2.188 3.1109,-4.653 0.5948,-5.751 3.4074,-7.814 10.5527,-8.793 1.3662,-0.188 2.7586,-0.193 3.0467,-0.211 2.5482,-5.332 4.8894,-10.008 7.0075,-14.784 0.6945,-1.566 0.8128,-3.388 1.1955,-5.093 7.1782,-4.673 14.3564,-9.347 21.5347,-14.019 -2.0954,-0.147 -3.9364,0.281 -5.6076,1.07 -4.0065,1.89 -7.9335,3.949 -11.8927,5.939 0.5982,-3.181 1.1964,-6.36 1.7844,-9.493 -2.5212,-1.056 -5.9523,-1.76 -8.3678,-3.717 -2.2719,-1.841 -3.4725,-5.003 -5.4842,-8.108 -10.6727,1.33 -10.4378,2.534 -21.8996,3.962 -0.0651,-0.413 1.1913,-1.279 1.1262,-1.69 11.6054,-2.133 10.1919,-3.589 22.1328,-5.784 1.8478,-10.72 4.9283,-20.785 18.6164,-21.161 0.6565,-3.075 1.3822,-5.992 1.8765,-8.946 0.3979,-2.376 -0.2416,-4.11 -3.0129,-4.837 -4.5058,-1.183 -8.5081,-3.108 -10.8349,-7.7 -0.4706,-0.929 -3.0932,-0.981 -4.7424,-1.065 -8.0527,-0.408 -16.1113,-0.69 -24.1834,-1.442 9.0472,-5.794 19.3194,-6.825 29.5806,-8.214 0.2847,-5.294 2.5761,-9.192 6.6839,-12.076 0.8094,-0.569 1.7515,-1.359 2.0151,-2.233 2.8279,-9.386 10.5257,-12.965 18.8061,-15.628 3.306,-1.064 5.377,-2.33 6.647,-5.977 1.226,-3.522 4.203,-6.433 6.626,-9.923 -5.981,-1.33 -12.157,-2.511 -18.2169,-4.124 -3.3982,-0.904 -6.7448,-2.261 -9.8582,-3.9 -2.7012,-1.422 -2.6496,-3.807 0.1994,-4.679 3.023,-0.925 6.4566,-1.125 9.63,-0.814 6.1957,0.607 12.3337,1.79 18.3797,2.717 0.902,-4.341 1.764,-8.488 2.725,-13.108 -17.838,-6.841 -37.4204,-10.824 -54.6275,-20.812 0.0828,-0.346 0.1648,-0.692 0.2467,-1.038 4.6013,0.915 9.2381,1.684 13.7946,2.784 4.5658,1.102 9.1147,2.354 13.5555,3.876 4.5675,1.566 9.0447,3.428 13.4697,5.369 4.274,1.873 8.432,4.013 12.915,6.168 0.632,-6.66 1.969,-12.426 7.04,-17.103 1.231,-1.135 0.288,-6.468 -1.349,-8.514 -4.425,-5.529 -9.763,-10.329 -14.475,-15.808 7.307,1.227 12.9,6.071 19.866,9.076 -0.598,-3.174 -1.129,-5.992 -1.661,-8.819 -7.388,-1.989 -7.779,-2.619 -6.409,-10.332 0.066,-0.377 0.12,-0.757 0.173,-1.137 1.341,-9.67 10.133,-13.588 18.597,-8.297 0.622,0.39 1.494,1.145 1.924,0.963 4.314,-1.835 8.206,0.332 11.634,1.969 3.884,1.856 6.815,0.469 10.193,-0.539 2.413,-0.721 4.963,-0.988 8.162,-1.591 1.249,-4.248 4.611,-7.787 9.879,-9.481 -0.453,-3.5031 -5.216,-5.6821 -2.863,-10.2859 4.671,3.3618 6.064,10.0639 13.042,10.7989 1.028,-4.1217 2.078,-8.2381 3.058,-12.373 0.13,-0.55 0.076,-1.2825 -0.189,-1.7683 -3.672,-6.7397 -2.365,-10.5646 4.902,-13.5893 -5.114,-6.0089 -3.344,-12.4098 -0.704,-18.6147 0.663,-1.5563 2.745,-3.1523 4.434,-3.5105 5.569,-1.1812 12.64,2.4992 14.979,7.6167 0.834,1.8258 1.515,2.2871 3.602,2.1841 2.026,-0.0997 4.117,1.1034 6.474,1.8249 1.134,-0.9809 2.524,-2.4679 4.179,-3.5553 3.938,-2.587 8.114,-3.5494 12.46,-0.8947 2.429,1.4836 4.454,1.5664 6.795,-0.5441 1.618,-1.46 3.988,-2.0835 6.004,-3.0712 -2.075,-8.2825 4.59,-16.0065 13.061,-15.8772 1.003,-2.3624 1.635,-4.7171 2.901,-6.6553 2.735,-4.183 6.034,-4.8471 10.254,-2.168 3.43,2.1773 6.542,4.8784 10.051,6.9003 2.559,1.4735 5.537,2.217 8.818,3.4725 -0.154,-1.5158 -0.303,-2.6783 -0.383,-3.8443 -0.346,-5.0144 2.86,-8.8181 7.879,-8.7387 3.394,0.0532 6.807,0.7139 10.154,1.3848 3.005,0.6015 3.592,2.8743 2.985,5.5492 -0.336,1.4811 -1.04,2.8989 -1.216,4.3884 -0.088,0.7342 0.43,1.9424 1.042,2.2956 7.84,4.5168 8.348,5.2349 9.125,13.2733 5.727,3.7977 10.834,7.5677 16.341,10.6152 1.797,0.9927 5.15,0.9446 6.883,-0.1141 3.065,-1.8714 6.02,-2.266 9.409,-2.2153 1.448,0.0211 3.012,-0.991 4.349,-1.8173 1.98,-1.2243 3.805,-2.7012 5.72,-4.0885 -0.048,-0.1225 -0.07,-0.4359 -0.229,-0.5373 -1.486,-0.9514 -4.402,-2.3598 -4.278,-2.713 1.007,-2.8676 2.099,-6.0106 4.15,-8.1025 1.455,-1.4845 2.745,-2.3708 2.852,-4.69 0.167,-3.6618 5.915,-7.0523 10.513,-6.8183 10.408,0.5281 10.799,7.5778 8.566,14.2855 -0.353,1.0628 -0.877,2.0699 -1.319,3.0956 4.785,4.6047 5.348,6.1703 3.419,9.5085 -0.191,0.3303 -0.342,0.7975 -0.637,0.9361 -4.692,2.2077 -4.183,6.4955 -4.594,10.6186 -0.242,2.4308 -1.537,4.7576 -2.28,6.907 5.359,4.0589 10.983,8.3163 16.453,12.4588 2.247,-1.5799 4.641,-3.5426 7.296,-5.0491 2.469,-1.4016 4.758,-1.0155 6.646,1.5453 1.487,2.0185 3.446,3.688 5.253,5.5721 4.984,-8.639 8.835,-10.7259 15.08,-8.3687 7.506,2.833 9.162,5.464 7.868,12.0034 3.391,-0.3717 6.913,-0.7587 10.515,-1.1541 2.116,-2.3623 4.624,-5.1657 7.133,-7.9682 0.484,0.4014 0.968,0.8027 1.451,1.2048 -2.218,3.0205 -4.435,6.0402 -6.639,9.0413 6.082,4.029 14.143,5.534 17.036,13.018 5.414,3.417 9.093,0.734 12.289,-3.282 1.42,-1.784 3.01,-3.573 3.865,-5.633 1.172,-2.823 3.135,-3.639 5.892,-3.932 1.72,-0.184 3.442,-0.8715 5.032,-1.615 1.602,-0.7494 3.022,-1.8782 4.552,-2.7881 2.615,-1.5546 5.406,-2.3885 5.859,-6.5108 0.41,-3.7403 4.466,-5.0668 8.383,-4.1078 1.165,0.2855 2.637,-0.1023 3.812,-0.5737 2.039,-0.8204 3.958,-1.9467 5.927,-2.9445 0.245,0.2696 0.49,0.5382 0.736,0.8077 -0.525,0.872 -0.947,1.8309 -1.594,2.5998 -2.017,2.3978 -4.054,4.3571 -3.324,8.2884 0.575,3.0906 -2.641,4.6477 -5.575,5.115 -5.037,0.8018 -10.425,6.034 -11.037,10.951 -0.701,5.627 -4.432,8.823 -10.021,8.585 -3.59,-0.154 -9.099,5.496 -8.209,8.418 5.715,-2.922 12.722,-2.285 14.767,1.343 3.291,5.844 0.812,10.12 -9.705,16.02 3.991,1.966 6.675,5.553 11.498,5.17 1.314,-0.105 3.071,0.175 3.969,0.995 2.838,2.591 4.876,1.427 7.515,-0.467 8.498,-6.098 14.754,-8.536 22.572,-9.045 -2.79,3.783 -5.024,7.186 -7.645,10.26 -2.729,3.201 -5.69,6.238 -8.81,9.061 -3.087,2.794 -6.496,5.231 -9.888,7.923 9.092,-0.179 15.296,4.996 21.104,10.584 3.328,3.201 3.086,7.527 -0.619,10.331 -3.599,2.723 -7.798,4.663 -11.774,6.872 -1.135,0.631 -2.413,1.006 -3.625,1.498 0.018,0.371 0.034,0.742 0.051,1.113 0.969,0.237 1.928,0.52 2.906,0.705 7.101,1.343 10.372,4.994 11.056,12.064 0.122,1.258 0.794,2.567 1.525,3.641 1.778,2.621 3.927,5.003 5.569,7.7 1.511,2.484 0.691,4.239 -2.447,4.19 -2.025,-0.032 -4.044,-0.422 -6.071,-0.497 -1.008,-0.037 -2.029,0.272 -3.044,0.424 -0.018,0.379 -0.036,0.758 -0.054,1.137 2.183,0.822 4.435,1.497 6.531,2.499 2.851,1.366 5.776,2.713 8.322,4.55 4.317,3.114 4.869,7.389 1.67,11.628 -1.364,1.809 -3.238,3.222 -4.788,4.901 -0.777,0.841 -1.346,1.875 -2.008,2.822 -3.015,-0.146 -4.022,1.667 -2.031,3.506 1.961,1.812 4.982,2.479 7.537,3.648 1.511,0.886 3.075,1.694 4.522,2.673 3.918,2.65 4.468,5.921 1.706,9.735 -0.593,0.819 -1.246,1.596 -1.974,2.524 2.309,3.01 3.358,7.131 8.63,6.651 1.928,-0.176 4.118,1.199 6.008,2.205 4.386,2.334 5.474,5.992 3.339,10.567 -0.538,1.15 -1.303,2.204 -1.758,3.382 -1.605,4.157 -4.103,6.403 -8.972,5.29 -1.193,-0.273 -3.208,0.675 -4.068,1.709 -4.353,5.231 -7.038,5.607 -12.499,1.359 -0.716,-0.557 -1.621,-0.874 -2.1,-1.127 -0.169,2.908 -0.496,5.503 -0.43,8.086 0.112,4.414 -4.126,2.903 -6.343,4.944 10.427,6.005 22.02,10.587 27.192,23.315 -12.478,-1.689 -23.092,-7.085 -33.667,-13.252 2.637,5.34 3.49,10.198 -2.172,14.355 1.934,1.196 3.524,2.138 5.073,3.144 5.675,3.689 6.15,5.998 2.35,11.233 6.331,5.707 3.514,19.223 -4.869,23.358 -4.812,2.373 -8.953,1.579 -11.542,-3.439 -2.054,-3.983 -2.71,-8.685 -4.157,-13.648 -2.805,-0.195 -6.814,-1.091 -9.459,3.43 0.427,0.543 1.126,1.065 1.299,1.723 0.547,2.098 1.963,4.996 1.102,6.217 -1.694,2.405 -4.607,4.03 -7.222,5.645 -0.569,0.351 -2.285,-0.421 -2.97,-1.148 -1.373,-1.459 -2.808,-3.094 -3.482,-4.928 -1.359,-3.697 -2.87,-7.027 -6.214,-9.518 -1.444,-1.076 -1.957,-3.402 -2.906,-5.182 -5.207,2.3 -5.549,4.249 -1.507,10.294 5.736,8.573 11.517,17.117 17.196,25.727 0.899,1.362 1.371,3.006 2.04,4.521 -0.353,0.249 -0.706,0.499 -1.059,0.75 -5.618,-4.89 -11.274,-9.738 -16.837,-14.689 -2.48,-2.207 -4.729,-4.671 -7.179,-6.913 -0.713,-0.652 -1.756,-0.941 -2.807,-1.478 2.228,5.291 4.458,9.91 6.122,14.727 1.686,4.885 0.154,9.584 -2.207,13.923 -0.462,0.848 -2.013,1.628 -3.01,1.569 -4.421,-0.259 -8.83,-0.793 -13.233,-1.32 -1.466,-0.175 -2.9,-0.621 -4.664,-1.014 4.453,7.986 3.519,10.554 -6.429,17.966 1.034,0.958 2.003,1.864 2.982,2.758 5.433,4.951 6.637,10.852 2.233,16.616 -3.179,4.16 -7.216,8.003 -11.621,10.814 -7.041,4.492 -14.041,0.023 -15.974,-9.971 -4.493,1.243 -8.957,2.477 -14.047,3.885 2.124,6.837 4.352,13.492 6.243,20.242 1.89,6.739 3.443,13.573 4.473,20.62 -5.235,-3.282 -8.749,-7.855 -11.016,-12.994 -3.417,-7.741 -5.997,-15.852 -8.923,-23.81 -0.347,-0.946 -0.394,-2.099 -0.977,-2.845 -5.514,-7.053 -5.539,-7.033 -7.132,-14.661 -7.717,0 -15.447,0.022 -23.179,-0.009 -4.03,-0.016 -6.538,-2.145 -6.969,-6.586 -0.594,-6.121 -0.933,-12.299 3.965,-17.269 0.59,-0.599 0.484,-1.884 0.858,-3.545 -1.8,0.745 -2.795,1.241 -3.843,1.574 -3.547,1.129 -4.635,2.926 -3.881,7.022 0.712,3.871 0.267,8.393 -3.145,10.659 1.719,11.018 3.391,21.725 5.061,32.432 -0.44,0.097 -0.881,0.194 -1.321,0.291 -4.701,-7.256 -7.495,-15.362 -10.001,-23.571 -0.811,-2.656 -0.614,-5.786 -1.953,-8.069 -1.365,-2.327 -4.052,-3.879 -6.16,-5.771 -0.722,0.852 -1.859,1.601 -2.098,2.571 -1.321,5.342 -3.912,9.387 -10.029,10.543 1.123,1.749 2.459,3.198 3.032,4.904 0.567,1.689 1.185,4.296 0.343,5.343 -2.185,2.718 -1.465,5.483 -1.432,8.358 0.043,3.673 0.218,7.389 -0.26,11.008 -0.451,3.415 -0.61,6.139 1.604,9.419 6.084,9.012 -3.42,19.832 -10.4,20.75 -7.909,1.038 -12.978,-3.997 -11.628,-12.734 0.725,-4.691 -0.374,-7.319 -4.052,-10.136 -3.258,-2.497 -5.768,-6.085 -8.222,-9.472 -1.201,-1.656 -2.18,-2.322 -4.255,-2.212 -2.608,0.14 -5.249,-0.345 -8.084,-0.579 0.145,13.277 3.367,26.962 -2.321,40.128 -4.502,-3.739 -5.975,-8.872 -8.55,-29.778 -4.187,1.922 -8.207,4.02 -12.409,5.643 -7.096,2.739 -14.251,4.162 -21.047,-0.977 -4.547,-3.439 -5.758,-5.737 -5.789,-11.187 -2.623,-0.387 -5.295,-0.568 -7.857,-1.2 -6.477,-1.599 -9.308,-5.417 -8.391,-12.025 0.566,-4.081 2.047,-8.035 3.301,-12.739 -1.479,0.928 -2.452,1.577 -3.461,2.166 -5.798,3.371 -10.971,2.255 -14.26,-3.69 -2.872,-5.192 -5.081,-10.751 -7.556,-16.088 -0.293,0.665 -0.757,1.743 -1.24,2.814 -3.308,7.346 -8.519,9.589 -15.83,6.14 -3.172,-1.496 -4.54,-0.903 -6.329,1.858 -3.459,5.338 -7.329,10.415 -11.107,15.542 -0.676,0.918 -1.732,1.556 -3.022,2.064 2.222,-8.873 7.617,-16.092 12.444,-23.56 -8.506,-6.204 -8.558,-13.359 1.118,-22.639 -3.573,-4.784 -7.159,-9.587 -10.761,-14.41 -14.051,9.678 -18.351,6.833 -24.241,0.877 -12.962,16.342 -23.01,35.367 -42.108,46.02 10.666,-18.749 23.39,-36.031 36.941,-52.746 -0.201,-0.297 -0.403,-0.592 -0.605,-0.887 -2.689,0.356 -5.396,0.611 -8.064,1.09 -7.298,1.307 -10.95,-2.115 -10.051,-9.533 0.207,-1.71 0.45,-3.418 0.768,-5.819 -5.133,2.425 -9.597,4.542 -14.067,6.644 -7.806,3.671 -8.8731,3.506 -14.7773,-2.459 -0.5601,5.306 -3.2452,9.41 -7.6006,11.639 -2.9918,1.532 -6.8622,2.206 -10.2165,1.902 -2.7856,-0.253 -5.4816,-2.341 -8.0543,-3.889 -3.399,-2.045 -0.8373,-5.392 -1.4051,-7.58 -3.6922,-1.833 -7.0633,-3.702 -10.6093,-5.139 -0.9471,-0.385 -2.5752,0.296 -3.6398,0.916 -6.3654,3.709 -3.8485,-2.482 -10.1928,1.262"
         id="path2" />
      <path
         fill-rule="evenodd"
         clip-rule="evenodd"
         d="m 136.93,435.205 c 1.12,-9.282 4.46,-15.569 11.843,-18.992 1.413,-0.656 3.925,-0.541 5.15,0.324 2.708,1.911 6.932,2.277 7.332,6.902 0.491,5.671 -1.392,10.34 -5.447,14.08 -2.521,2.322 -5.345,4.352 -8.196,6.273 -2.732,1.841 -5.733,1.359 -7.481,-1.191 -1.707,-2.487 -2.469,-5.622 -3.201,-7.396 z"
         fill="#b03025"
         id="path4"
         style="display:inline" />
      <path
         fill-rule="evenodd"
         clip-rule="evenodd"
         d="m 545.92,254.226 c 6.564,0.133 13.174,0.804 19.682,0.265 8.438,-0.699 18.14,0.401 26.025,4.242 -9.718,4.901 -19.896,5.105 -30.225,3.788 -3.251,-0.414 -6.436,-1.326 -9.652,-2.009 -2.407,-1.667 -5.675,-2.533 -5.83,-6.286 z"
         fill="#b03025"
         id="path6"
         style="display:inline" />
      <path
         fill-rule="evenodd"
         clip-rule="evenodd"
         d="m 546.706,419.035 c -10.805,0.59 -25.275,-10.437 -26.69,-20.118 9.474,-0.701 23.559,9.813 26.69,20.118 z"
         fill="#b03025"
         id="path8"
         style="display:inline" />
      <path
         fill-rule="evenodd"
         clip-rule="evenodd"
         d="m 407.231,86.0568 c 3.659,-9.5152 7.381,-18.9467 19.094,-23.0723 -3.712,10.6279 -10.011,17.9802 -19.094,23.0723 z"
         fill="#b03025"
         id="path10"
         style="display:inline" />
      <path
         fill-rule="evenodd"
         clip-rule="evenodd"
         d="m 315.896,2.42151 c 3.764,8.62809 7.576,16.56579 2.159,25.38399 -5.939,-6.6916 -6.883,-16.8759 -2.159,-25.38399 z"
         fill="#b03025"
         id="path12"
         style="display:inline" />
      <path
         fill-rule="evenodd"
         clip-rule="evenodd"
         d="m 355.181,63.7084 c -5.653,-8.5317 -8.357,-17.7689 -6.858,-28.532 5.572,6.5192 7.121,12.5551 6.858,28.532 z"
         fill="#b03025"
         id="path14"
         style="display:inline" />
    </g>
    <g
       inkscape:groupmode="layer"
       id="layer5"
       inkscape:label="Orange"
       style="display:inline">
      <path
         style="display:inline;fill:#ca8341;fill-opacity:1"
         d="m 290.56445,62.707031 c -2.561,5.9709 -2.62418,11.073866 -1.36718,16.259766 1.22,5.0246 2.51768,10.029731 3.67968,14.644531 -2.231,0.8837 -4.25345,1.685591 -6.68945,2.650391 -5.011,-8.7556 -16.9818,-12.561916 -17.5918,-25.103516 -1.84,3.4294 -3.196,6.578341 -3.875,9.869141 -1.676,8.1414 -0.80195,16.836756 -5.37695,24.347656 -0.117,0.194 -0.0235,0.50681 -0.0625,0.75781 -0.7,4.465 -1.40566,8.92549 -1.97266,12.52149 -2.355,0.893 -4.33667,1.74595 -6.38867,2.37695 -0.886,0.272 -1.93614,0.23798 -2.86914,0.084 -8.739,-1.444 -14.52369,2.44116 -16.42969,10.91016 -3.318,0 -6.9309,-0.87195 -9.7539,0.24805 -2.748,1.091 -5.60389,3.84645 -6.71289,6.56445 -1.019,2.504 0.22225,5.93014 0.53125,9.74414 -4.303,-4.569 -8.43835,-9.38189 -13.02735,-13.71289 -4.723,-4.46 -9.89028,-8.45148 -14.86328,-12.64648 -0.48,0.522 -0.95945,1.0444 -1.43945,1.5664 5.58,12.459 18.62356,17.67872 27.22656,25.76172 -2.196,2.074 -3.94222,3.84017 -5.82422,5.45117 -0.899,0.769 -2.32092,1.97785 -3.04492,1.71485 -2.457,-0.891 -5.33453,-1.83385 -6.89453,-3.71485 -2.252,-2.715 -4.44713,-2.46692 -7.07813,-1.54492 -1.047,0.368 -1.99715,1.0196 -2.78515,1.43359 -7.846,-5.33399 -15.48325,-10.52593 -24.03125,-16.33593 0.735,2.807 1.1619,4.43384 1.6289,6.21484 -2.181,-0.978 -4.08432,-1.83155 -5.98632,-2.68555 2.242,2.481 4.59682,4.87138 6.67382,7.48438 0.8622,1.08558 1.16763,2.61449 1.70704,3.95703 -4.3396,-3.54832 -8.67897,-7.09425 -13.01758,-10.64258 1.048,2.686 1.53104,5.82066 3.24804,7.97266 5.076,6.359 10.33919,12.63466 16.11719,18.34765 3.794,3.752 7.05406,7.46769 7.91406,12.92969 -2.502,2.505 -10.04989,3.3968 -13.71289,1.0918 -2.945,-1.853 -5.38332,-1.5462 -7.48632,0.8418 -1.519,1.723 -2.73218,1.672 -4.57618,0.625 -4.881,-2.773 -9.85936,-5.37768 -14.81836,-8.01368 -2.014,-1.071 -4.07707,-2.05264 -6.83007,-3.43164 2.368,6.828 6.7059,10.724 11.6289,14 4.264,2.839 9.24274,4.99574 8.17774,11.55274 -0.054,0.335 0.15261,0.76408 0.34961,1.08008 1.662,2.654 1.39479,5.17942 -0.53321,7.73242 -3.255,-1.889 -6.0347,-5.034 -10.5957,-2 -5.441,3.619 -4.29369,8.587 -3.80469,13.375 -9.637,2.39 -12.16023,10.41679 -14.61523,17.96679 -2.564,-0.43399 -4.73069,-0.50154 -6.67969,-1.18554 -7.024,-2.466 -11.81589,-0.0371 -13.46289,7.04687 2.071,0.34 4.1428,0.68139 6.2168,1.02539 0.037,0.347 0.0724,0.69397 0.10937,1.04297 -2.445,0.584 -4.88994,1.16991 -7.33594,1.75391 0.546,4.053 1.61089,4.78414 5.83789,4.36914 1.08201,-0.105 2.67705,-0.0856 3.24805,0.56641 2.985,3.412 5.06792,7.2756 4.41992,11.72461 -7.056,2.52599 -13.95782,4.99668 -21.794918,7.80468 8.494098,5.35 16.234358,3.83708 23.443358,2.20508 0.528,2.565 1.04224,4.68399 1.36524,6.83398 0.111,0.73701 -3.2e-4,1.76402 -0.44532,2.29102 -5.504,6.541 -5.86081,9.20045 -2.00781,16.31445 l 21.00781,-8.64843 c 0.217,0.465 0.43439,0.92853 0.65039,1.39453 l -18.0664,11.60742 h 8.61133 c 0.868,1.633 1.92101,3.61661 3.04101,5.72461 -4.537,3.343 -9.0152,6.46361 -13.2832,9.84961 -2.913,2.31 -5.5332,4.99086 -8.2832,7.50586 l 0.0312,0.0371 c 5.36701,-2.22 10.73313,-4.43844 16.07813,-6.64844 -0.523,2.637 -1.21614,5.18153 -1.49414,7.76953 -0.36,3.346 1.15431,7.28078 -3.42969,9.05078 -0.445,0.172 -0.47478,1.23824 -0.92578,1.61524 -0.926,0.772 -1.94597,1.49956 -3.04297,1.97656 -0.901,0.392 -2.37476,0.0476 -2.88476,0.64062 -1.357,1.581 -3.08349,3.41702 -3.27149,5.29102 -0.251,2.502 1.84494,3.38123 4.46094,3.36523 4.932,-0.029 9.86678,0.32839 14.80078,0.52539 -0.177,0.342 -0.3533,0.68435 -0.5293,1.02735 1.308,1.499 2.37696,3.72867 4.00196,4.26367 1.298,0.426 3.27317,-1.21091 5.70117,-2.25391 4.365,2.817 10.30208,5.47099 15.95508,2.08399 5.012,-3.003 8.96,-7.78463 13.5,-11.89063 1.234,1.705 2.62359,4.19639 4.55859,6.15039 1.986,2.004 2.53547,4.12432 2.60547,6.82032 0.065,2.503 0.80967,5.00361 1.38867,7.47461 1.628,6.938 7.37247,13.55553 16.23047,12.64453 3.897,-0.4 7.81166,-0.61744 11.47266,-0.89844 0.938,3.622 1.9275,7.43498 2.9375,11.33398 -4.75,1.938 -4.79408,1.93052 -5.58008,6.97852 -0.333,2.127 -0.31605,3.99069 -2.49805,5.67969 -1.184,0.916 -0.81558,4.23576 -0.51758,6.38476 0.074,0.532 2.99083,1.44741 3.92383,0.94141 3.179,-1.727 6.39178,-3.67703 8.92578,-6.20703 1.524,-1.522 2.45369,-2.17386 4.42969,-1.38086 4.111,1.649 6.36292,-0.59595 8.04492,-4.00196 2.088,-4.226 2.16635,-8.49371 0.40235,-13.01171 1.178,0.756 1.894,1.67598 2.625,2.58398 4.778,5.937 9.52806,6.32542 15.41406,1.35742 2.115,-1.787 4.3705,-3.40947 6.5625,-5.10547 4.382,5.849 4.90605,5.90458 10.74805,1.76758 1.94999,-1.381 4.00378,-2.61709 5.55078,-3.62109 0.582,4.164 0.44506,8.51642 1.91406,12.23242 1.51,3.819 4.5887,7.0183 7.0957,10.6543 -6.891,3.979 -14.01926,8.37033 -12.94726,18.48633 -4.652,2.131 -6.83374,5.70823 -6.42774,10.74023 0.414,5.138 2.809,6.77798 7.75,5.20898 3.369,-1.069 6.41875,-2.34104 10.21875,-0.62304 1.747,0.791 4.68503,-0.42899 6.83203,-1.33399 1.816,-0.767 3.30791,-2.34553 4.87891,-3.64453 11.578,-9.585 18.50789,-21.51344 18.71289,-36.89844 0.017,-1.257 0.88733,-2.5039 1.36133,-3.7539 0.849,1.041 1.9579,1.96253 2.5039,3.14453 2.485,5.384 4.81036,10.84339 7.19336,16.27539 0.453,-0.181 0.90538,-0.36197 1.35938,-0.54297 -1.147,-5.322 -2.05844,-10.71036 -3.52344,-15.94336 -1.036,-3.699 -1.17217,-7.04166 0.17383,-10.72266 0.721,-1.972 0.42058,-4.49701 0.0176,-6.66601 -0.907,-4.875 -0.18033,-6.77061 4.26367,-9.22461 0.289,0.22 0.62272,0.41759 0.88672,0.68359 4.459,4.508 8.43775,9.63739 16.09375,8.40039 2.4,-0.388 3.16181,2.49847 1.25781,4.60547 -2.881,3.19 -3.72155,6.80499 -2.81055,10.95899 0.612,2.782 2.36296,3.9827 5.00196,3.4707 8.306,-1.612 15.8552,-4.558 19.7832,-12.875 1.848,-3.912 3.42942,-7.94911 5.23242,-12.16211 0.469,0.668 0.72592,1.09752 1.04492,1.47852 4.37,5.224 8.60703,10.62864 16.58204,9.93164 0.73799,-0.065 2.14456,0.87247 2.22656,1.48047 0.127,0.949 -0.39539,2.1849 -1.02539,3.0039 -4.058,5.271 -4.65041,9.55811 -0.81641,14.66211 2.469,3.287 5.75706,6.06356 9.03906,8.60156 2.583,1.997 5.05666,3.0206 4.84766,7.4336 -0.303,6.413 2.30919,7.90539 8.74219,6.77539 0.125,-0.022 0.25809,-0.0349 0.37109,-0.0879 3.226,-1.534 4.39878,-0.0295 5.30078,3.02148 1.461,4.945 3.61256,5.76558 8.35156,3.64258 1.854,-0.831 3.6428,-1.85656 5.3418,-2.97656 7.314,-4.823 7.65775,-7.32094 3.09375,-12.46094 0,-3.977 0.99502,-7.29077 -0.20898,-9.25977 -2.454,-4.01499 -2.75217,-8.80026 -2.45117,-12.44726 0.65399,-7.942 -0.49283,-15.16727 -3.42383,-22.32227 -1.116,-2.729 -0.2165,-3.9432 1.5625,-4.1582 2.269,3.651 3.72875,7.32767 6.34375,9.76367 1.932,1.798 5.35967,2.68166 8.13867,2.72266 4.906,0.072 9.90184,-0.43997 14.71484,-1.41797 3.537,-0.717 3.81566,-3.44089 0.97266,-5.83789 -1.613,-1.359 -3.34681,-2.5758 -5.00781,-3.8418 6.456,-8.868 6.35107,-9.1319 -6.41993,-16.6289 7.478,-5.028 14.89675,-10.01547 22.46875,-15.10547 6.815,8.763 13.6998,16.69298 25.7168,19.45898 -2.658,-3.148 -4.73622,-5.50794 -6.69922,-7.96094 -2.007,-2.508 -3.8997,-5.10912 -6.3457,-8.32812 7.151,0 13.4223,-0.59189 19.5293,0.16211 6.364,0.785 10.7267,-2.4453 15.0957,-5.7793 2.686,-2.052 2.68891,-5.14887 0.37891,-7.79687 -1.161,-1.329 -2.72299,-2.30122 -3.95899,-3.57422 -1.351,-1.393 -2.90851,-2.7698 -3.72851,-4.4668 -3.156,-6.531 -11.93029,-11.28197 -18.23829,-10.04297 -1.54,-3.627 -3.03115,-7.13217 -3.91015,-9.20117 1.31,-1.957 3.44695,-3.71225 3.50195,-5.53125 0.107,-3.483 2.0755,-4.46166 4.5625,-5.47266 3.971,6.466 7.20449,8.43605 11.52149,4.99805 4.55,-3.623 9.14095,-3.09962 14.00195,-3.26562 0.317,-0.011 0.62814,-0.21213 1.99414,-0.70313 -4.835,-1.344 -8.7532,-2.43336 -13.2832,-3.69336 1.624,-0.565 2.59234,-0.86137 3.52734,-1.23437 4.162,-1.66 4.56627,-3.66407 1.19727,-6.66407 -1.668,-1.485 -3.58405,-2.69181 -5.87305,-4.38281 2.139,-2.08 3.70187,-4.4987 5.92187,-5.5957 6.72,-3.32 11.38599,-8.34319 14.33399,-15.11719 l -0.78906,-6.41211 c 0,0 -5.77065,-5.52056 -9.18164,-7.22656 -2.99901,-1.5 -4.68549,-3.16817 -5.02149,-6.32617 1.146,-0.939 2.2872,-1.75189 3.2832,-2.71289 6.926,-6.679 5.72627,-11.74271 -3.42773,-14.59571 -6.146,-1.917 -10.40011,-14.29779 -8.66211,-20.59179 -1.2,-0.971 -2.28909,-2.56569 -3.62109,-2.80469 -5.586,-1 -11.28438,-1.38078 -16.85938,-2.42578 -2.945,-0.552 -6.0268,-1.55299 -8.4668,-3.20899 -1.643,-1.115 -2.26865,-3.72762 -3.47265,-5.89062 3.162,-3.533 -2.40785,-4.47778 -2.83985,-7.80078 1.377,-0.493 2.95654,-0.82257 4.26954,-1.60157 1.253,-0.74399 3.24439,-2.06626 3.15039,-2.94726 -0.502,-4.736 1.41101,-8.00403 5.04101,-10.70703 0.643,-0.478 1.17911,-1.92241 0.91211,-2.56641 -0.275,-0.662 -1.6724,-1.3488 -2.44141,-1.2168 -2.021,0.34701 -4.08801,1.8888 -5.91601,1.5918 -4.026,-0.653 -5.28247,2.02499 -7.10547,4.45899 -0.866,1.156 -2.13236,2.4219 -3.44336,2.7539 -3.182,0.805 -6.49206,1.09158 -9.28906,1.51758 -3.02883,-2.2688 -8.66678,-6.10878 -12.08594,-8.61914 -0.0476,-0.64888 -0.14508,-1.30802 -0.008,-1.91602 1.468,-6.5 1.04786,-7.1327 -4.11914,-11.2207 -2.012,-1.592 -4.20097,-3.64075 -3.04297,-7.09375 0.332,-0.989 -0.45056,-2.99147 -1.35156,-3.60547 -1.359,-0.926 -3.27091,-1.04114 -5.37891,-1.61914 0.518,-2.422 0.58939,-5.05903 1.65039,-7.20703 1.79,-3.627 1.10489,-5.92042 -2.66211,-7.23242 -2.769,-0.964 -5.42365,-2.2535 -8.22265,-3.4375 0.742,-1.504 1.24914,-2.37955 1.61914,-3.31055 1.717,-4.328 -0.01,-6.95642 -4.58985,-6.41992 -1.804,0.2112 -3.46687,1.70525 -5.17187,2.65625 -1.025,0.571 -2.00872,1.22003 -3.01172,1.83203 -4.691,2.862 -12.24702,1.84905 -12.66602,8.37305 -3.493,1.473 -6.27445,2.15426 -8.43945,3.69726 -2.197,1.566 -3.84823,2.06403 -5.74023,0.33204 1.936,-15.063 3.84395,-29.894214 5.75195,-44.724614 -1.663,2.4477 -3.17709,5.049265 -3.62109,7.822265 -1.74901,10.8991 -3.17146,21.851109 -4.68946,32.787109 -0.267,1.922 0.4695,4.37647 -2.5625,4.73047 -2.939,0.342 -6.69086,-3.41695 -6.63086,-6.37695 0.082,-4.036 0.33221,-8.10957 -0.0918,-12.105472 -0.627,-5.9362 -2.33849,-11.595079 -6.39649,-16.955079 -3.498,8.639 -3.16261,16.863775 -1.47461,24.921871 -2.942,0 -5.67201,-0.46253 -8.16601,0.10547 -4.032,0.919 -1.28333,4.23785 -2.23633,6.71485 -2.249,-5.859 -4.4971,-11.71853 -6.7461,-17.578128 -0.457,0.1361 -0.91409,0.27025 -1.37109,0.40625 -1.996,5.637298 -1.35358,11.560828 -0.89258,17.298828 0.211,2.625 -0.26018,3.98789 -2.49218,5.33789 -1.739,-11.075 -2.03622,-22.540496 -10.19922,-31.591796 -0.924,2.0784 -2.57513,4.285378 -2.82813,6.642578 -0.714,6.6578 -0.83823,13.379268 -1.24023,20.072268 -0.055,0.918 -0.14516,1.99625 -0.66016,2.65625 -0.248,0.316 -2.04091,0.089 -2.25391,-0.33399 -2.322,-4.598 -4.85153,-9.15114 -6.51953,-13.99414 -1.017,-2.951898 -1.69998,-5.299888 -5.33398,-5.212888 -0.983,0.0237 -1.97055,-0.195181 -2.93555,-0.300781 -2.854,-11.4838 -5.88772,-22.65661 -12.76172,-33.28711 z"
         id="path7680" />
      <path
         fill-rule="evenodd"
         clip-rule="evenodd"
         d="m 529.326,283.442 c 2.049,-1.14 2.99,-2.08 3.968,-2.121 2.272,-0.095 4.726,0.614 4.278,3.407 -0.206,1.286 -2.546,3.326 -3.55,3.13 -1.452,-0.282 -2.572,-2.282 -4.696,-4.416 z"
         fill="#ca8341"
         id="path40"
         style="display:inline" />
      <path
         fill-rule="evenodd"
         clip-rule="evenodd"
         d="m 472.874,139.089 c -0.293,-2.56 -0.775,-5.146 2.709,-5.009 1.31,0.052 3.742,1.765 3.642,2.409 -0.539,3.492 -3.354,2.995 -6.351,2.6 z"
         fill="#ca8341"
         id="path42"
         style="display:inline" />
      <path
         fill-rule="evenodd"
         clip-rule="evenodd"
         d="m 156.931,138.073 c -1.394,-0.338 -2.788,-0.675 -4.182,-1.013 -2.089,-2.301 -4.177,-4.603 -6.265,-6.903 l 0.056,-0.067 c 3.463,2.661 6.927,5.322 10.391,7.983 z"
         fill="#ca8341"
         id="path46"
         style="display:inline" />
    </g>
    <g
       inkscape:groupmode="layer"
       id="layer4"
       inkscape:label="Yellow"
       style="display:inline">
      <path
         fill-rule="evenodd"
         clip-rule="evenodd"
         d="m 79.8661,323.314 c 3.9601,-1.99 7.8863,-4.049 11.8928,-5.939 1.6712,-0.789 3.5122,-1.216 5.6075,-1.07 -7.1782,4.672 -14.3564,9.346 -21.5346,14.019 -2.2905,0.528 -4.5819,1.057 -6.8732,1.585 -0.1732,-0.285 -0.3464,-0.57 -0.5196,-0.855 3.8096,-2.579 7.6184,-5.159 11.4271,-7.74 z"
         fill="#dfc25b"
         id="path16"
         style="display:inline" />
      <path
         style="display:inline;fill:#dfc25b;fill-opacity:1"
         d="m 414.178,391.027 c -2.171,-2.324 -4.252,-4.74 -6.531,-6.953 -6.112,-5.935 -12.397,-11.698 -18.434,-17.709 -2.517,-2.507 -4.464,-5.579 -6.905,-8.176 -1.26,-1.34 -3.093,-2.123 -4.55,-3.304 -0.912,-0.74 -1.788,-1.653 -2.344,-2.672 -0.565,-1.035 -0.718,-2.296 -1.262,-4.191 -1.155,1.287 -1.66,2.32 -2.44,2.609 -1.166,0.431 -3.474,0.784 -3.656,0.397 -1.94,-4.121 -8.409,-4.358 -8.515,-10.223 -0.019,-1.107 -2.95,-2.162 -5.292,-3.751 -0.342,4.367 -0.649,8.282 -1.002,12.782 -2.486,-1.506 -4.593,-2.78 -7.71,-4.666 0.722,8.556 1.366,16.177 2.009,23.799 -0.235,0.113 -0.471,0.226 -0.706,0.337 -1.721,-2.87 -3.409,-5.76 -5.172,-8.605 -1.946,-3.138 -3.763,-6.386 -6.013,-9.294 -1.498,-1.935 -3.666,-3.35 -5.516,-5.017 -1.791,-1.614 -3.685,-3.139 -5.303,-4.913 -1.955,-2.142 -2.422,-5.569 -6.096,-6.299 -0.831,-0.165 -1.185,-2.38 -1.911,-3.557 -0.471,-0.764 -1.217,-1.358 -1.838,-2.029 -0.641,0.788 -1.664,1.496 -1.849,2.38 -0.654,3.111 -0.907,6.305 -1.553,9.417 -0.248,1.201 -1.142,2.268 -1.981,3.845 -1.105,-1.814 -1.764,-2.893 -2.417,-3.965 -6.063,3.84 -6.081,10.545 -8.001,16.33 -0.911,2.742 -1.862,5.471 -2.795,8.207 -0.422,0.008 -0.845,0.017 -1.269,0.025 -2.236,-13.42 -4.474,-26.84 -6.769,-40.604 -2.046,-0.869 -3.233,0.227 -3.809,2.689 -1.068,4.57 -2.785,8.828 -7.045,11.375 -0.776,0.463 -2.068,0.066 -3.833,0.066 -0.797,1.482 -2.089,3.885 -3.335,6.202 -6.197,-0.973 -6.678,-1.921 -4.373,-8.445 -2.823,-1.223 -4.545,0.009 -5.785,2.438 -2.534,4.968 -5.06,9.941 -7.59,14.91 -0.403,-0.077 -0.806,-0.153 -1.208,-0.229 0,-4.903 0,-9.805 0,-15.287 -7.496,1.408 -14.716,0.08 -21.548,3.611 -6.892,3.562 -14.872,0.672 -18.821,-6.129 -0.642,-1.107 -1.09,-2.841 -0.686,-3.94 1.097,-2.996 -0.353,-3.048 -2.498,-2.784 -1.68,6.624 -9.382,10.539 -16.68,7.9 -3.062,-1.107 -5.563,-3.765 -8.32,-5.715 -0.754,-0.533 -1.439,-1.283 -2.278,-1.553 -6.315,-2.027 -8.231,-8.503 -4.102,-13.678 0.634,-0.793 0.949,-2.168 0.813,-3.196 -1.285,-9.752 4.102,-18.45 13.087,-21.146 0,-4.489 0,-8.918 0,-13.599 -1.257,-0.144 -2.233,-0.251 -3.208,-0.367 -6.176,-0.734 -12.346,-1.839 -19.159,0.511 2.29,-5.206 6.768,-5.925 10.163,-8.116 2.152,-1.39 4.009,-3.239 5.993,-4.891 2.52,-2.097 5.034,-4.201 8.121,-6.78 -7.48,0 -14.533,0.051 -21.582,-0.036 -1.787,-0.021 -4.271,1.045 -4.565,-2.429 -0.046,-0.55 -2.365,-1.009 -3.678,-1.327 -2.262,-0.548 -4.558,-0.954 -6.703,-2.296 2.603,0 5.206,0 7.81,0 0.017,-0.141 0.034,-0.282 0.052,-0.423 -2.671,-0.712 -5.341,-1.423 -8.011,-2.135 0.032,-0.18 0.064,-0.36 0.096,-0.54 1.505,-0.102 3.009,-0.204 5.188,-0.352 -9.86,-1.753 -19.04,-3.385 -28.219,-5.017 0.018,-0.286 0.036,-0.572 0.055,-0.858 2.289,0 4.578,0 7.895,0 -1.605,-1.238 -2.416,-1.863 -3.773,-2.909 14.881,-1.78 29.286,-3.503 43.69,-5.226 0.038,-0.152 0.077,-0.304 0.115,-0.457 -4.31,-1.139 -8.621,-2.279 -12.932,-3.418 0.037,-0.395 0.074,-0.79 0.111,-1.185 6.214,-0.747 12.428,-1.495 18.643,-2.242 0.035,-0.233 0.069,-0.466 0.104,-0.699 -2.966,-0.826 -5.932,-1.649 -8.898,-2.474 -0.06,-0.434 -0.119,-0.868 -0.179,-1.302 2.308,-0.493 4.827,-1.826 6.884,-1.313 5.177,1.292 7.627,-0.291 10.36,-4.977 3.251,-5.577 8.385,-10.055 12.907,-15.243 -0.035,-8.217 -7.185,-13.118 -11.952,-19.641 -4.176,-5.715 -8.997,-10.556 -13.938,-15.504 -3.246,-3.25 -4.95,-8.039 -7.343,-12.138 0.322,-0.267 0.643,-0.533 0.965,-0.8 11.681,7.368 23.363,14.737 34.255,21.607 2.649,-1.989 5.212,-3.312 6.866,-5.367 1.124,-1.397 1.18,-3.8 1.356,-5.786 0.833,-9.415 4.713,-17.009 13.335,-21.396 7.362,-3.746 15.337,-4.584 23.51,-3.551 0.884,0.112 1.765,0.269 2.653,0.34 0.489,0.038 0.989,-0.062 1.692,-0.116 -0.685,-7.295 6.195,-9.935 8.235,-15.147 -0.757,-1.107 -1.962,-2.547 -2.738,-4.189 -0.251,-0.531 0.536,-2.248 0.991,-2.306 3.102,-0.397 2.785,-2.605 3.072,-4.794 0.862,-6.595 1.937,-13.163 3.014,-20.3037 9.973,14.8807 16.835,30.9187 22.844,48.7077 0.908,-1.829 1.502,-2.567 1.627,-3.378 0.212,-1.379 0.023,-2.816 0.189,-4.207 0.487,-4.083 2.096,-4.946 5.752,-3.168 0,-4.775 0,-9.544 0,-14.314 0.367,-0.121 0.732,-0.241 1.098,-0.361 2.809,5.352 5.716,10.656 8.383,16.079 1.223,2.486 2.335,4.31 5.568,4.86 4.42,0.752 5.773,3.547 6.019,10.411 1.858,-2.288 3.105,-4.599 5.017,-6.001 3.239,-2.374 6.916,-4.148 10.374,-6.231 0.982,-0.592 2.296,-1.185 2.694,-2.107 3.813,-8.806 12.41,-12.155 21.459,-7.956 2.678,1.242 5.137,2.122 8.01,0.946 0.557,-0.229 1.262,-0.111 1.9,-0.13 5.75,-0.166 8.036,1.46 8.022,5.699 -0.017,4.825 -3.197,8.133 -7.965,8.076 -2.057,-0.024 -3.167,0.571 -4.544,2.397 -2.26,3.002 -5.498,5.264 -8.325,7.839 -0.286,-0.246 -0.572,-0.492 -0.859,-0.738 0.682,1.67 1.362,3.34 1.847,4.529 7.741,0.255 10.203,-7.294 16.767,-10.481 -0.233,3.076 -0.426,5.59 -0.613,8.057 2.665,0.76 5.357,1.527 8.46,2.412 5.229,-5.567 10.932,-11.639 16.636,-17.711 0.508,0.19 1.015,0.379 1.523,0.569 -1.328,8.027 -2.658,16.053 -4.086,24.681 0.97,-0.439 2.13,-0.646 2.821,-1.328 3.625,-3.574 5.984,-3.621 9.092,-0.093 3.132,-2.153 6.198,-4.372 9.403,-6.366 0.608,-0.378 2.001,0.525 2.632,0.155 1.609,-0.943 2.981,-2.288 4.471,-3.442 1.866,-1.446 3.754,-2.863 5.633,-4.292 l -0.038,-0.04 c -1.743,4.921 -3.488,9.843 -5.243,14.797 3.346,-2.878 6.616,-5.69 9.886,-8.503 0.758,0.208 1.516,0.416 2.274,0.625 -4.29,7.633 -3.58,15.248 0.128,22.756 1.571,-0.201 3.204,-0.411 4.837,-0.619 0.179,0.367 0.358,0.736 0.537,1.104 -1.738,1.58 -3.318,3.397 -5.248,4.688 -3.563,2.38 -8.265,3.515 -8.563,9.041 -0.039,0.729 -1.149,1.346 -1.545,2.126 -0.465,0.915 -0.691,1.949 -1.348,3.904 4.398,-0.863 7.895,-2.053 11.412,-2.113 4.489,-0.078 9.233,0.054 13.407,1.458 2.502,0.841 4.583,1.341 7.151,1.05 8.715,-0.988 17.469,-1.644 26.174,-2.7 4.352,-0.528 8.634,-1.649 12.947,-2.503 6.439,-0.997 12.879,-1.989 19.316,-2.993 1.228,-0.192 2.449,-0.432 3.673,-0.65 l -0.045,-0.05 c -2.248,2.085 -4.275,4.503 -6.794,6.178 -4.204,2.796 -8.725,5.116 -13.112,7.637 -5.731,2.565 -11.462,5.13 -17.095,7.652 2.82,8.296 0.874,8.966 -4.324,10.869 -3.461,1.267 -6.632,3.405 -10.143,4.439 -4.363,1.285 -3.793,4.879 -4.33,7.883 -0.272,1.52 5.357,5.493 7.26,5.272 9.048,-1.053 17.874,0.827 26.745,1.966 7.305,0.938 14.575,2.157 21.86,3.251 5.465,0.283 10.945,0.393 16.388,0.913 3.599,0.343 7.142,1.275 10.71,1.942 -0.026,0.436 -0.051,0.871 -0.076,1.307 -8.744,0.748 -17.488,1.497 -26.233,2.244 -13.939,1.406 -27.875,2.828 -41.816,4.21 -6.333,0.629 -12.675,1.18 -19.014,1.766 -0.076,0.436 -0.15,0.873 -0.226,1.309 1.654,0.247 3.307,0.693 4.962,0.706 8.783,0.071 17.565,0.034 26.456,0.669 -10.274,1.222 -20.547,2.445 -32.019,3.809 1.617,0.651 2.566,1.032 4.106,1.653 -2.429,1.001 -3.598,1.483 -4.766,1.963 -0.005,0.378 -0.011,0.755 -0.015,1.132 9.635,1.992 19.271,3.984 28.907,5.977 -0.078,0.445 -0.156,0.889 -0.234,1.334 -14.911,-0.063 -29.623,-5.382 -44.637,-2.759 -0.054,0.397 -0.108,0.793 -0.162,1.19 4.706,1.138 9.411,2.277 14.117,3.414 0.014,0.24 0.026,0.479 0.04,0.718 -0.737,0.155 -1.485,0.483 -2.208,0.435 -5.565,-0.376 -7.086,4.131 -9.135,7.777 -0.318,0.568 0.9,2.328 1.764,3.173 3.605,3.529 7.343,6.919 11.035,10.361 -0.12,0.113 -0.235,0.228 -0.35,0.344 -5.153,-2.188 -10.339,-4.303 -15.441,-6.602 -1.848,-0.832 -3.473,-1.682 -5.073,0.275 -0.076,0.093 -0.222,0.205 -0.321,0.194 -7.089,-0.8 -9.629,6.641 -15.378,8.258 0.17,3.051 0.33,5.922 0.462,8.298 3.225,1.124 6.226,1.8 8.86,3.179 3.77,1.973 7.123,3.947 11.889,3.165 4.183,-0.686 5.373,3.8 6.634,6.78 1.423,3.362 -0.555,7.845 -3.501,9.79 -4.132,2.728 -6.847,2.277 -11.632,-2.027 -1.777,1.114 -3.602,2.251 -5.418,3.4 -3.293,2.084 -6.552,2.439 -10.088,0.365 -0.938,-0.549 -2.63,-0.433 -3.725,0.005 -5.532,2.209 -11.003,4.573 -16.432,7.025 -0.853,0.384 -1.747,1.398 -1.989,2.293 -0.878,3.269 -1.652,6.588 -2.111,9.937 -0.169,1.233 0.442,2.708 1.048,3.891 3.308,6.456 6.938,12.756 10.033,19.309 2.267,4.803 3.882,9.914 5.788,14.888 z"
         id="path26" />
      <path
         fill-rule="evenodd"
         clip-rule="evenodd"
         d="m 118.304,296.742 c 7.003,-2.883 14.006,-5.766 21.009,-8.649 0.216,0.466 0.432,0.931 0.65,1.396 -6.022,3.869 -12.044,7.738 -18.066,11.607 -4.879,1.887 -9.758,3.777 -14.638,5.665 -0.262,-0.473 -0.523,-0.946 -0.785,-1.419 3.943,-2.867 7.887,-5.732 11.83,-8.6 z"
         fill="#dfc25b"
         id="path32"
         style="display:inline" />
      <path
         fill-rule="evenodd"
         clip-rule="evenodd"
         d="m 105.25,240.815 c 2.072,0.34 4.143,0.68 6.214,1.02 0.037,0.348 0.075,0.695 0.112,1.043 -2.445,0.585 -4.891,1.17 -7.336,1.755 -6.7469,0 -13.4934,0 -20.2399,0 -0.0498,-0.434 -0.0997,-0.867 -0.1495,-1.301 4.8759,-0.67 9.7458,-1.383 14.6285,-1.992 2.2439,-0.279 4.5129,-0.356 6.7709,-0.525 z"
         fill="#dfc25b"
         id="path34"
         style="display:inline" />
      <path
         fill-rule="evenodd"
         clip-rule="evenodd"
         d="m 159.565,140.082 c 2.243,2.481 4.599,4.872 6.675,7.485 0.881,1.108 1.176,2.681 1.736,4.043 l 0.031,-0.035 c -4.359,-3.565 -8.718,-7.13 -13.076,-10.695 v -0.004 c -0.196,-0.326 -0.392,-0.65 -0.588,-0.974 -0.532,-0.948 -1.064,-1.895 -1.596,-2.842 1.394,0.337 2.788,0.675 4.182,1.013 0,0 0.087,0.097 0.089,0.093 0.85,0.637 1.699,1.278 2.549,1.919 z"
         fill="#dfc25b"
         id="path36"
         style="display:inline" />
      <path
         fill-rule="evenodd"
         clip-rule="evenodd"
         d="m 227.854,126.258 c -4.913,-2.472 -7.733,-6.688 -10.328,-12.468 1.767,0.341 3.339,0.194 3.699,0.785 2.338,3.829 4.412,7.819 6.573,11.757 z"
         fill="#dfc25b"
         id="path38"
         style="display:inline" />
      <path
         fill-rule="evenodd"
         clip-rule="evenodd"
         d="m 461.225,131.059 c -2.742,3.576 -5.483,7.153 -8.223,10.729 -0.388,-0.308 -0.774,-0.616 -1.161,-0.925 1.94,-4.28 4.907,-7.699 9.172,-10.029 z"
         fill="#dfc25b"
         id="path44"
         style="display:inline" />
      <path
         fill-rule="evenodd"
         clip-rule="evenodd"
         d="m 471.633,307.755 c 8.524,3.585 14.783,8.608 19.323,15.93 -6.132,0.088 -16.472,-8.199 -19.323,-15.93 z"
         fill="#dfc25b"
         id="path66"
         style="display:inline" />
      <path
         fill-rule="evenodd"
         clip-rule="evenodd"
         d="m 143.867,219.551 c 5.985,-3.386 16.691,-2.646 19.878,1.375 -5.761,3.459 -15.711,3.33 -19.878,-1.375 z"
         fill="#dfc25b"
         id="path68"
         style="display:inline" />
      <path
         fill-rule="evenodd"
         clip-rule="evenodd"
         d="m 301.324,98.7902 c -5.113,-9.2431 -8.222,-17.9895 -9.449,-27.9423 4.688,4.2887 9.093,17.3752 9.449,27.9423 z"
         fill="#dfc25b"
         id="path70"
         style="display:inline" />
      <path
         fill-rule="evenodd"
         clip-rule="evenodd"
         d="m 189.693,368.769 c 4.701,-6.465 8.89,-12.226 13.582,-18.675 1.81,7.607 -4.939,16.65 -13.582,18.675 z"
         fill="#dfc25b"
         id="path72"
         style="display:inline" />
      <path
         fill-rule="evenodd"
         clip-rule="evenodd"
         d="m 292.165,408.508 c -2.308,-8.792 -1.213,-17.244 2.077,-25.475 0.392,0.037 0.784,0.075 1.177,0.113 -0.635,8.573 -1.27,17.147 -1.906,25.719 -0.449,-0.119 -0.9,-0.237 -1.348,-0.357 z"
         fill="#dfc25b"
         id="path74"
         style="display:inline" />
      <path
         fill-rule="evenodd"
         clip-rule="evenodd"
         d="m 328.126,117.104 c -4.187,-6.92 -5.093,-13.617 -2.032,-16.21 4.063,4.999 3.053,10.552 2.032,16.21 z"
         fill="#dfc25b"
         id="path76"
         style="display:inline" />
      <path
         fill-rule="evenodd"
         clip-rule="evenodd"
         d="m 262.986,363.418 c -1.303,4.041 -2.368,7.747 -3.755,11.327 -0.3,0.773 -1.764,1.093 -2.693,1.621 -0.362,-0.882 -0.987,-1.75 -1.041,-2.651 -0.245,-4.09 3.412,-9.618 7.489,-10.297 z"
         fill="#dfc25b"
         id="path78"
         style="display:inline" />
      <path
         fill-rule="evenodd"
         clip-rule="evenodd"
         d="m 438.849,366.602 c -2.027,-2.524 -4.029,-3.971 -4.304,-5.696 -0.213,-1.33 1.738,-3.007 2.727,-4.528 1.525,2.002 3.234,3.904 4.431,6.088 0.261,0.479 -1.307,1.96 -2.854,4.136 z"
         fill="#dfc25b"
         id="path80"
         style="display:inline" />
      <path
         fill-rule="evenodd"
         clip-rule="evenodd"
         d="m 243.604,367.799 c 0.19,5.85 -1.758,11.055 -5.016,13.718 -1.406,-4.24 1.254,-11.924 5.016,-13.718 z"
         fill="#dfc25b"
         id="path82"
         style="display:inline" />
      <path
         fill-rule="evenodd"
         clip-rule="evenodd"
         d="m 397.363,148.508 c -0.792,1.98 -1.317,4.122 -2.414,5.913 -7.274,11.854 -14.671,23.631 -22.021,35.438 -0.328,0.527 -0.592,1.094 -1.014,1.879 3.353,0.89 6.277,-3.687 9.52,-0.222 11.602,-9.9 23.703,-19.11 38.356,-26.623 -1.934,3.93 -3.37,6.849 -4.805,9.766 0.164,0.237 0.329,0.476 0.494,0.713 5.12,-2.802 10.24,-5.605 15.325,-8.388 2.686,3.113 3.142,6.72 0.076,9.587 -4.607,4.31 -9.983,7.785 -14.857,11.828 -2.726,2.263 -5.096,4.956 -7.626,7.455 0.277,0.393 0.554,0.785 0.831,1.178 4.882,-1.073 9.765,-2.146 15.569,-3.421 -4.385,6.098 -9.892,9.304 -15.518,12.148 -5.49,2.775 -11.275,4.966 -16.801,7.746 8.361,-1.524 16.701,-3.161 25.083,-4.548 13.816,-2.287 27.653,-4.442 41.5,-6.531 0.898,-0.136 1.953,0.767 2.905,2.07 7.251,-1.147 14.504,-2.293 21.757,-3.439 0.256,0.345 0.51,0.691 0.765,1.036 -2.489,2.378 -4.827,4.946 -7.507,7.087 -3.447,2.754 -7.242,5.066 -10.757,7.742 -7.835,5.965 -16.957,8.713 -26.383,10.636 -7.093,1.446 -14.245,2.602 -21.284,3.872 0.54,2.178 1.015,4.099 1.532,6.185 7.973,5.964 17.309,3.523 26.392,3.164 4.969,-0.197 10.001,-0.841 14.273,2.753 0.605,0.509 1.656,0.752 2.475,0.701 5.209,-0.328 10.406,-0.858 15.619,-1.136 1.881,-0.1 3.786,0.37 5.685,0.477 4.831,0.271 9.678,0.345 14.491,0.788 1.944,0.178 3.817,1.112 5.721,1.702 -0.089,0.451 -0.181,0.903 -0.271,1.355 -5.885,0.51 -11.766,1.068 -17.655,1.519 -7.498,0.573 -15.196,0.195 -22.454,1.815 -7.877,1.758 -15.653,1.09 -23.473,1.511 -1.058,0.058 -2.196,0.542 -3.104,1.127 -2.555,1.649 -5.011,3.454 -7.623,5.281 2.701,1.362 5.536,2.79 9.139,4.608 -7.426,3.735 -14.546,4.978 -22.249,5.069 7.79,2.923 15.323,5.752 22.858,8.58 -0.08,0.427 -0.159,0.854 -0.237,1.281 -12.053,0 -24.104,0 -36.157,0 7.044,2.341 15.192,2.434 19.071,11.209 -6.45,-1.141 -13.026,-1.822 -19.308,-3.568 -5.054,-1.404 -9.1,0.435 -12.923,1.624 2.525,6.297 5.011,12.34 7.363,18.435 0.856,2.219 1.39,4.56 1.458,7.263 -4.45,-3.82 -8.901,-7.643 -13.352,-11.463 -0.248,0.224 -0.497,0.447 -0.745,0.671 7.021,9.055 16.798,16.155 20.98,28.668 -12.208,-6.104 -22.098,-13.717 -31.355,-21.927 -1.193,1.603 -2.33,3.129 -4.009,5.386 2.457,4.821 5.474,10.395 8.175,16.118 4.507,9.554 8.811,19.204 13.201,28.814 l -0.236,0.197 c -5.596,-6.74 -11.518,-13.241 -16.694,-20.291 -5.07,-6.904 -10.563,-13.262 -17.438,-18.849 -0.6,4.679 -1.151,8.984 -1.703,13.289 -0.408,0.106 -0.815,0.211 -1.222,0.318 -2.789,-5.37 -5.606,-10.726 -8.352,-16.118 -1.148,-2.254 -1.081,-2.289 -4.153,-1.77 2.019,6.816 4.031,13.611 6.042,20.405 -0.328,0.242 -0.654,0.485 -0.982,0.727 -3.192,-3.777 -6.583,-7.408 -9.52,-11.374 -2.496,-3.37 -4.432,-7.152 -6.699,-10.699 -0.656,-1.027 -1.597,-1.872 -2.408,-2.8 -0.31,0.199 -0.62,0.397 -0.93,0.596 4.114,10.391 8.23,20.784 12.345,31.173 -11.565,-8.739 -18.476,-20.562 -24.303,-33.433 0,4.468 0,8.936 0,13.402 -0.38,0.082 -0.759,0.163 -1.141,0.244 -2.143,-8.937 -4.286,-17.876 -6.126,-25.547 -1.037,8.771 -2.241,18.963 -3.446,29.155 -0.363,-0.004 -0.726,-0.006 -1.089,-0.009 0,-9.1 0,-18.201 0,-27.302 -0.491,-0.058 -0.981,-0.118 -1.472,-0.177 -2.33,13.665 -4.66,27.33 -6.643,38.967 -1.992,-10.699 -1.634,-23.736 -0.937,-36.754 -7.408,9.821 -14.901,19.757 -22.394,29.692 -0.453,-0.158 -0.905,-0.315 -1.359,-0.473 1.338,-6.271 2.676,-12.542 4.013,-18.814 -0.18,-0.13 -0.361,-0.262 -0.541,-0.393 -5.39,7.812 -10.78,15.624 -16.743,24.268 -1.044,-10.027 1.143,-18.42 4.785,-26.42 2.211,-4.858 5.276,-9.32 7.713,-14.085 0.574,-1.121 0.53,-2.888 0.063,-4.081 -0.258,-0.657 -1.988,-0.737 -3.054,-1.077 -0.792,-2.263 -2.093,-3.665 -4.784,-3.234 -2.422,0.389 -4.52,-0.171 -5.982,-2.433 -0.294,-0.457 -1.269,-0.475 -2.736,-0.964 1.413,3.927 2.584,7.179 3.753,10.431 -4.16,2.177 -8.32,4.354 -12.868,6.735 0.276,-7.856 3.532,-13.957 8.024,-19.898 -2.27,0.502 -4.539,1.003 -7.759,1.713 1.067,-2 1.776,-3.33 2.599,-4.873 -0.959,-0.602 -1.961,-1.231 -3.372,-2.116 2.342,-1.99 4.422,-3.758 6.501,-5.525 0.351,-0.065 0.7,-0.129 0.15,-0.028 0.468,-0.362 0.182,-0.141 -0.104,0.079 -7.917,1.993 -15.834,3.986 -23.751,5.979 -2.041,0.443 -4.079,0.886 -6.119,1.329 -8.019,1.633 -16.038,3.266 -24.057,4.899 -0.072,-0.19 -0.145,-0.38 -0.217,-0.57 7.332,-5.08 14.663,-10.159 22.319,-15.462 -10.257,1.041 -19.87,8.107 -31.116,1.662 8.75,-6.938 18.401,-10.945 27.917,-15.191 1.004,0.539 1.962,1.367 3.024,1.534 1.085,0.17 2.517,0.005 3.317,-0.624 0.436,-0.342 0.226,-2.227 -0.32,-2.93 -0.863,-1.113 -2.253,-1.818 -3.324,-2.623 0.217,-1.593 0.429,-3.149 0.646,-4.737 -3.246,0.22 -6.029,0.409 -9.047,0.615 0.693,2.015 1.225,3.561 1.758,5.106 -12.638,1.312 -25.277,2.625 -37.915,3.938 -0.062,-0.155 -0.125,-0.312 -0.188,-0.467 2.168,-0.929 4.336,-1.859 7.627,-3.27 -8.677,-1.643 -16.359,-3.098 -24.937,-4.723 5.23,-0.493 9.713,-0.828 14.169,-1.38 1.841,-0.228 3.621,-0.931 5.431,-1.404 5.875,-1.536 11.703,-3.301 17.643,-4.513 3.836,-0.783 7.838,-0.754 11.886,-1.79 -5.849,-1.007 -11.699,-2.014 -17.548,-3.02 -0.036,-0.305 -0.072,-0.611 -0.108,-0.917 13.671,-2.514 27.343,-5.028 41.343,-7.603 -1.044,-0.781 -2.03,-1.455 -2.945,-2.214 -2.423,-2.005 -2.907,-4.803 -1.411,-7.181 0.78,-1.244 3.296,-1.916 5.034,-1.929 3.398,-0.025 6.801,0.596 10.547,0.231 -4.441,-3.66 -8.622,-7.713 -13.384,-10.893 -8.047,-5.373 -13.434,-12.922 -18.573,-20.786 l 0.154,-0.155 c 8.552,4.443 17.103,8.886 25.661,13.333 -0.962,-2.311 -2.017,-4.847 -3.072,-7.384 0.397,-0.277 0.793,-0.553 1.19,-0.83 4.964,4.634 9.928,9.268 14.907,13.915 2.223,-1.303 2.003,-2.477 0.495,-4.5 -2.6,-3.489 -4.66,-7.381 -6.947,-11.102 0.417,-0.29 0.833,-0.58 1.25,-0.869 2.667,3.157 5.335,6.314 8.242,9.753 0.832,-4.344 0.262,-7.535 -2.619,-10.567 -3.402,-3.58 -6.187,-7.747 -9.241,-11.661 l -0.032,0.031 c 1.801,0.499 3.601,0.999 5.403,1.499 0.1,0.131 0.2,0.263 0.301,0.394 -0.007,-0.08 0.016,-0.193 -0.028,-0.233 -0.078,-0.07 -0.195,-0.095 -0.298,-0.139 0.623,-3.292 2.14,-4.068 4.823,-2.344 2.757,1.77 5.439,3.655 8.154,5.489 0.29,0.221 0.58,0.443 0.869,0.664 0.045,0.092 0.076,0.197 0.142,0.272 0.034,0.039 0.129,0.024 0.196,0.033 -0.131,-0.085 -0.263,-0.17 -0.394,-0.254 -0.17,-0.343 -0.339,-0.686 -0.509,-1.028 -0.65,-1.988 -1.301,-3.976 -1.952,-5.965 0.275,-0.21 0.55,-0.419 0.824,-0.63 4.138,3.922 8.275,7.843 12.737,12.073 0.204,-2.087 0.392,-4.008 0.579,-5.93 1.451,-0.143 2.903,-0.286 5.519,-0.543 -2.05,-3.221 -3.6,-5.656 -5.149,-8.091 0.95,-2.494 1.901,-4.987 3.106,-8.154 1.549,2.057 2.431,3.226 3.312,4.396 0.068,0.349 0.136,0.697 0.032,0.158 0.318,0.41 0.116,0.151 -0.085,-0.109 0.01,-8.574 0.216,-17.155 -0.045,-25.721 -0.16,-5.316 -1.209,-10.601 -1.487,-15.919 -0.102,-1.943 0.871,-3.942 1.354,-5.914 0.562,-0.032 1.124,-0.062 1.686,-0.093 3.908,12.659 7.816,25.319 11.77,38.128 1.496,-2.849 2.878,-5.481 4.261,-8.114 0.375,0.018 0.751,0.036 1.127,0.054 1.868,5.079 3.736,10.159 5.6,15.237 -1.222,-0.671 -2.37,-1.576 -3.672,-1.962 -3.006,-0.89 -3.154,2.099 -4.436,3.546 1.029,0.763 2.01,1.606 3.1,2.271 1.647,1.004 3.37,1.885 5.062,2.818 -0.109,0.265 -0.219,0.529 -0.327,0.794 0.97,-0.229 1.94,-0.458 2.911,-0.687 0.745,0.639 1.491,1.278 2.236,1.918 0.355,-0.153 0.711,-0.306 1.067,-0.46 0,-6.04 0,-12.081 0,-18.122 0.398,-0.052 0.793,-0.105 1.19,-0.157 1.671,6.683 3.341,13.367 5.012,20.05 0.215,-0.036 0.43,-0.072 0.645,-0.108 -1.395,-11.453 -2.793,-22.906 -4.187,-34.359 0.349,-0.109 0.699,-0.219 1.049,-0.329 3.139,8.554 6.279,17.107 9.39,25.588 0.918,-3.263 1.85,-6.579 2.562,-9.113 1.813,0 2.924,0 4.731,0 0.539,0.689 1.598,2.042 2.822,3.608 0.735,-1.8 1.351,-3.309 2.329,-5.704 0.892,2.4 1.513,4.071 2.131,5.741 -0.851,0.842 -2.431,1.698 -2.415,2.521 0.058,3.016 1.418,5.215 4.682,4.657 0.803,2.665 1.517,5.032 2.231,7.397 0.33,0.121 0.66,0.241 0.991,0.361 0.629,-1.222 1.355,-2.405 1.858,-3.677 0.392,-0.984 0.153,-2.487 0.805,-3.047 2.082,-1.789 1.637,-3.758 0.992,-5.872 4.898,-3.012 5.775,-8.121 7.083,-13.119 0.778,-2.977 2.242,-5.776 4.25,-8.374 -0.901,7.915 -1.794,15.831 -2.711,23.744 -0.352,3.027 -0.919,6.039 -1.065,9.073 -0.061,1.261 0.718,2.564 1.007,3.499 5.685,-6.215 11.046,-12.075 16.407,-17.934 0.098,0.105 0.2,0.207 0.303,0.307 -1.692,5.731 -3.381,11.464 -5.081,17.192 -0.393,1.325 -0.833,2.635 -1.557,4.912 1.487,-1.207 2.186,-2.038 3.078,-2.461 12.704,-6.033 20.307,-18.015 30.943,-26.452 0.491,-0.389 1.038,-0.71 1.56,-1.063 z m -11.51,49.857 c -1.038,0.493 -2.074,0.988 -3.111,1.481 -4.089,2.475 -8.292,4.781 -12.236,7.47 -3.983,2.714 -7.707,5.808 -11.545,8.734 -0.298,-0.266 -0.595,-0.532 -0.893,-0.798 1.096,-1.777 2.193,-3.553 3.287,-5.331 0.107,-0.123 0.214,-0.245 0.32,-0.368 -0.125,0.104 -0.251,0.208 -0.377,0.312 -1.525,0.778 -3.05,1.556 -4.575,2.335 l -0.005,-0.006 c 0.192,-1.662 0.384,-3.324 0.62,-5.379 -2.767,1.134 -5.144,2.108 -7.52,3.081 l -0.002,-0.002 c 1.44,-2.387 2.88,-4.775 4.576,-7.588 -2.948,0.468 -5.38,0.856 -8.404,1.337 0.303,-1.639 0.551,-2.988 0.827,-4.486 -1.025,-0.181 -2.058,-0.365 -3.728,-0.662 1.905,-2.367 3.513,-4.365 5.121,-6.363 -0.616,-0.56 -1.231,-1.12 -1.847,-1.679 -3.688,4.097 -7.375,8.195 -10.987,12.208 -0.744,-5.373 -1.536,-11.107 -2.33,-16.838 -0.523,0.04 -1.046,0.081 -1.57,0.122 0.182,4.166 0.366,8.332 0.547,12.498 -0.354,0.024 -0.708,0.05 -1.062,0.075 -1.379,-8.534 -2.757,-17.068 -4.136,-25.601 -1.486,2.225 -2.128,4.5 -2.609,6.807 -0.496,2.378 -0.833,4.788 -1.356,7.867 -0.67,-1.614 -1.031,-2.482 -1.421,-3.419 -7.158,5.311 -5.278,11.095 -5.632,22.736 -9.604,-9.957 -13.395,-23.444 -21.207,-34.645 0.839,6.597 2.294,12.973 3.752,19.35 0.281,1.231 0.571,2.461 0.856,3.692 l -0.043,0.037 c -0.928,-0.979 -1.856,-1.959 -2.853,-3.01 -2.568,1.37 -1.83,2.794 -0.574,4.584 1.93,2.75 4.944,5.704 -0.16,8.437 -0.252,0.135 -0.139,0.951 -0.195,1.448 l -0.059,0.06 c -1.858,-0.148 -4.107,-2.611 -4.876,0.52 -3.539,-3.04 -6.995,-6.008 -10.451,-8.977 -0.099,-0.068 -0.199,-0.136 -0.299,-0.204 0.109,0.059 0.217,0.119 0.325,0.177 0.978,1.616 1.849,3.309 2.957,4.831 1.618,2.223 2.91,4.404 0.94,7.441 -4.091,-2.289 -8.216,-4.595 -12.34,-6.902 -0.043,-0.091 -0.069,-0.199 -0.136,-0.27 -0.041,-0.044 -0.141,-0.032 -0.215,-0.044 0.109,0.112 0.22,0.224 0.329,0.336 3.6,4.353 6.981,8.913 10.87,12.989 2.828,2.964 6.326,5.289 9.524,7.899 -2.648,0.204 -4.995,-0.51 -7.342,-0.51 -3.119,0 -6.25,0.476 -9.353,0.908 -1.405,0.196 -2.869,1.353 -4.111,1.103 -13.908,-2.804 -13.897,-2.855 -19.723,-1.287 11.586,3.532 23.519,7.171 35.454,10.81 0.02,0.167 0.041,0.334 0.061,0.501 -7.478,0.797 -14.955,1.594 -22.433,2.391 10.196,6.396 21.633,2.002 32.438,4.251 -5.946,1.118 -12.477,0.799 -16.686,6.571 1.438,0.566 2.584,1.017 4.189,1.649 -7.454,2.557 -14.445,4.955 -21.435,7.353 0.083,0.358 0.166,0.716 0.249,1.074 7.352,-0.934 14.704,-1.867 23.208,-2.948 -1.785,1.159 -2.572,1.669 -4.288,2.782 2.909,0 4.7,0 6.531,0 -0.589,1.924 -4.387,2.925 -1.334,4.657 -3.767,4.524 -7.483,8.986 -11.199,13.448 -0.093,0.04 -0.2,0.064 -0.273,0.127 -0.044,0.038 -0.036,0.136 -0.052,0.207 0.105,-0.115 0.209,-0.23 0.313,-0.345 3.71,-1.912 7.421,-3.823 11.131,-5.735 -1.135,2.159 -2.764,3.763 -3.897,5.662 -0.816,1.37 -0.865,3.175 -1.458,4.707 -0.438,1.13 -1.203,2.134 -1.946,3.407 3.766,1.065 4.745,-2.037 6.571,-3.641 1.656,-1.455 3.272,-2.955 4.906,-4.433 l 0.071,0.059 c -2.334,3.54 -4.667,7.081 -7.001,10.622 12.034,-5.287 18.006,-16.246 26.184,-25.331 -1.628,7.411 -3.256,14.821 -4.885,22.229 0.242,0.033 0.483,0.065 0.724,0.098 2.474,-4.103 4.947,-8.207 7.421,-12.311 2.34,-0.147 4.74,-0.225 4.259,-3.659 1.336,1.168 2.674,2.336 3.987,3.482 -0.383,-2.437 -0.795,-5.063 -1.383,-8.794 2.42,5.932 4.391,10.765 6.362,15.597 0.242,-0.133 0.483,-0.264 0.724,-0.397 0,-4.079 0,-8.158 0,-12.722 1.893,3.266 3.575,6.166 5.813,10.024 0,-2.659 0,-4.217 0,-5.773 0.392,-0.172 0.784,-0.345 1.176,-0.517 4.728,7.725 9.454,15.451 14.181,23.175 0.237,-0.124 0.473,-0.247 0.71,-0.371 -0.821,-2.826 -1.639,-5.653 -2.459,-8.48 0.26,-0.096 0.521,-0.193 0.782,-0.29 1.589,3.308 3.18,6.617 4.77,9.926 0.245,-0.106 0.491,-0.212 0.735,-0.317 -1.63,-8.728 -3.259,-17.456 -4.889,-26.184 0.37,-0.121 0.739,-0.242 1.109,-0.363 1.542,2.71 3.031,5.451 4.639,8.12 1.701,2.822 3.515,5.575 5.279,8.359 0.102,0.342 0.202,0.685 0.302,1.028 0.098,-0.07 0.285,-0.196 0.281,-0.203 -0.179,-0.286 -0.374,-0.561 -0.568,-0.838 -0.374,-2.273 -0.446,-4.653 -1.193,-6.797 -1.201,-3.45 -2.848,-6.746 -4.307,-10.107 2.923,1.016 4.223,4.405 7.728,3.164 0.125,0.337 0.25,0.675 0.374,1.012 0.099,-0.074 0.291,-0.2 0.282,-0.216 -0.166,-0.306 -0.357,-0.599 -0.542,-0.896 -0.663,-1.634 -1.324,-3.268 -1.993,-4.916 6.367,1.569 12.516,3.084 18.665,4.598 0.112,-0.335 0.225,-0.671 0.335,-1.007 -3.987,-2.695 -7.975,-5.391 -11.849,-8.01 0.341,-0.784 0.635,-1.458 0.928,-2.133 l 0.007,-0.006 c 5.664,0.287 11.328,0.572 16.992,0.859 0.055,-0.413 0.108,-0.827 0.161,-1.24 -6.767,-1.977 -13.534,-3.953 -20.302,-5.929 0.023,-0.175 0.046,-0.35 0.068,-0.524 5.618,0 11.237,0 16.854,0 0.041,-0.358 0.082,-0.716 0.124,-1.075 -4.398,-1.525 -8.796,-3.049 -12.767,-4.426 6.796,-2.429 13.683,-4.893 20.571,-7.356 -0.117,-0.246 -0.232,-0.492 -0.348,-0.739 -3.278,-0.376 -6.556,-0.753 -10.525,-1.209 3.827,-1.748 6.957,-3.099 10.018,-4.592 7.797,-3.801 17.082,-4.509 23.232,-11.349 -12.999,-0.9 -24.132,7.134 -37.026,8.248 2.325,-1.313 4.648,-2.624 6.971,-3.937 -0.076,-0.191 -0.151,-0.382 -0.228,-0.573 -2.088,0.519 -4.175,1.037 -6.775,1.682 0.85,-1.372 1.349,-2.178 2.125,-3.43 -2.465,-0.31 -4.497,-0.566 -6.53,-0.823 -0.263,-0.37 -0.526,-0.74 -0.788,-1.109 2.594,-1.913 5.191,-3.825 7.785,-5.737 -0.318,-0.295 -0.638,-0.59 -0.956,-0.884 -3.515,0.874 -7.03,1.748 -10.544,2.622 -0.261,-0.406 -0.521,-0.812 -0.781,-1.218 0.661,-0.343 1.391,-0.597 1.974,-1.04 4.334,-3.29 8.639,-6.616 12.953,-9.93 0.308,-0.081 0.616,-0.162 0.925,-0.242 -0.307,-0.168 -0.614,-0.335 -0.922,-0.504 0.803,-1.245 1.605,-2.49 2.405,-3.74 0.999,-0.542 1.997,-1.082 2.994,-1.624 0.108,-0.122 0.217,-0.243 0.324,-0.365 -0.12,0.11 -0.24,0.219 -0.361,0.328 z M 349.278,309.79 c -0.562,6.656 0.513,7.879 6.099,7.222 0.957,-0.111 1.998,-0.309 2.883,-0.056 2.165,0.616 4.258,1.471 6.152,2.148 -0.294,-1.998 -0.651,-3.476 -0.699,-4.966 -0.081,-2.464 -1.026,-3.531 -3.587,-2.859 -1.049,0.275 -2.871,0.715 -3.156,0.287 -2.012,-3.008 -4.718,-2.344 -7.692,-1.776 z m 50.807,-38.322 c 2.808,-0.883 5.074,-3.426 8.363,-1.91 0.585,0.271 1.916,-1.071 3.429,-1.988 -3.245,-2.349 -5.913,-4.282 -9.076,-6.572 -5.435,1.057 -6.374,3.604 -2.716,10.47 z m 19.272,-35.046 c -0.313,-0.619 -0.626,-1.238 -0.939,-1.857 -2.153,0.484 -4.831,0.375 -6.272,1.656 -0.968,0.861 -0.184,3.692 -0.184,5.641 0.581,0.218 1.162,0.435 1.743,0.653 1.885,-2.031 3.769,-4.062 5.652,-6.093 z m -23.153,-39.377 c 4.557,-1.54 5.474,-3.791 3.631,-8.41 -4.919,0.777 -5.865,2.864 -3.631,8.41 z m -40.42,-5.005 c 3.526,-0.841 5.632,-2.339 4.698,-6.185 -6.018,-0.512 -6.538,0.121 -4.698,6.185 z m 26.607,107.417 c 0.282,-0.256 0.565,-0.511 0.846,-0.767 -0.37,-0.438 -0.741,-0.875 -1.111,-1.313 -0.259,0.243 -0.515,0.484 -0.772,0.727 0.345,0.452 0.692,0.903 1.037,1.353 z m -106.379,11.996 c -0.063,-0.196 -0.125,-0.393 -0.189,-0.588 -0.083,0.075 -0.243,0.159 -0.236,0.224 0.024,0.202 0.111,0.396 0.174,0.593 0.083,-0.076 0.166,-0.152 0.251,-0.229 z m 78.201,-15.524 c -0.031,-0.11 -0.061,-0.221 -0.09,-0.33 -0.09,0.027 -0.255,0.051 -0.257,0.084 -0.007,0.108 0.046,0.22 0.077,0.33 0.089,-0.027 0.179,-0.055 0.27,-0.084 z m 33.396,-36.657 c -0.088,-0.033 -0.179,-0.066 -0.268,-0.099 -0.013,0.127 -0.026,0.253 -0.038,0.379 0.093,-0.018 0.203,-0.013 0.278,-0.062 0.04,-0.026 0.021,-0.142 0.028,-0.218 z m -7.469,-66.862 -0.112,0.211 0.18,0.017 z"
         fill="#dfc25b"
         id="path94"
         style="display:none" />
    </g>
    <path
       fill-rule="evenodd"
       clip-rule="evenodd"
       d="m 404.568,116.685 c 2.503,0.885 4.153,1.497 5.824,2.052 2.866,0.952 3.9,3.82 2.259,6.486 -1.9,3.089 -3.854,6.147 -5.853,9.326 -2.004,-2.269 -3.715,-4.206 -5.605,-6.347 1.045,-3.566 2.214,-7.553 3.375,-11.517 z"
       fill="#b03025"
       id="path64"
       style="display:inline" />
  </g>
  <g
     inkscape:groupmode="layer"
     id="layer2"
     inkscape:label="Can"
     style="display:inline;opacity:1">
    <path
       d="M 366.377,492.988 C 242.35,510.23 204.01,477.702 204.01,477.702 c 6.666,36.978 83.911,44.117 159.658,32.641 158.328,-23.986 136.486,-79.94 136.486,-79.94 0,0 -21.919,47.034 -133.777,62.585 z"
       fill="#38312b"
       id="path214" />
    <path
       d="M 443.479,16.3139 C 439.528,-0.911114 369.377,-5.26612 284.334,6.95888 199.023,19.2209 133.518,42.7699 135.026,60.4269 l 1.802,12.542 c 0,0 119.792,30.4861 159.671,24.197 40.85,-6.442 147.977,-73.907 147.977,-73.907"
       fill="#38312b"
       id="path216" />
    <path
       d="m 434.724,17.4578 c 0,0 -57.751,-12.95796 -140.403,-1.077 -111.653,16.051 -151.839,43.43 -151.839,43.43 0,0 20.23,17.667 150.828,-1.451 101.282,-14.823 141.414,-40.902 141.414,-40.902 z"
       fill="#67452b"
       id="path218" />
    <path
       d="m 204.044,477.938 c 0,0 37.766,33.481 161.795,16.242 111.859,-15.547 134.61,-63.467 134.61,-63.467 L 444.375,22.5328 c 0,0 -35.663,30.106 -145.892,47.04 -104.339,16.026 -161.831,2.134 -161.831,2.134 z"
       fill="#006561"
       id="path220" />
    <path
       d="m 422.251,178.163 26.607,1.168 c 0,0 -0.378,208.473 -5.569,210.123 -131.97,41.939 -201.392,27.075 -201.392,27.075 l -60.928,-202.09 31.473,-7.212 -19.801,-58.607 c 0,0 92.534,-32.799 230.852,-32.205 2.713,0.012 -1.242,61.748 -1.242,61.748 z"
       fill="#b58c51"
       id="path222" />
    <path
       d="m 412.299,189.466 30.077,1.645 c 0,0 -0.635,189.408 -5.283,190.927 -118.173,38.346 -191.011,26.208 -191.011,26.208 l -54.652,-185.101 32.854,-7.564 -17.979,-54.39 c 0,0 82.844,-30.034 206.864,-28.946 2.434,0.021 -0.87,57.221 -0.87,57.221 z"
       fill="#19181b"
       id="path224" />
    <path
       d="m 256.752,237.727 -16.317,2.293 4.178,-6.002 6.196,44.092 -11.457,1.61 -6.197,-44.092 5.735,4.609 -16.349,2.298 -1.222,-8.69 34.212,-4.808 z m 29.396,36.236 c -3.004,0.423 -5.921,0.296 -8.75,-0.378 -2.812,-0.699 -5.383,-1.946 -7.713,-3.74 -2.331,-1.795 -4.301,-4.133 -5.909,-7.014 -1.59,-2.905 -2.665,-6.353 -3.226,-10.344 -0.561,-3.991 -0.476,-7.591 0.254,-10.8 0.731,-3.21 1.96,-5.986 3.687,-8.33 1.749,-2.346 3.88,-4.232 6.392,-5.657 2.535,-1.428 5.325,-2.356 8.372,-2.785 3.046,-0.428 5.974,-0.303 8.782,0.374 2.83,0.675 5.409,1.899 7.737,3.672 2.327,1.773 4.274,4.103 5.839,6.99 1.587,2.884 2.661,6.321 3.222,10.312 0.561,3.991 0.467,7.603 -0.282,10.837 -0.731,3.21 -1.98,6 -3.747,8.371 -1.746,2.367 -3.884,4.276 -6.415,5.726 -2.513,1.425 -5.261,2.347 -8.243,2.766 z m -1.271,-9.043 c 1.802,-0.253 3.429,-0.974 4.881,-2.163 1.45,-1.21 2.508,-3.022 3.175,-5.435 0.689,-2.416 0.762,-5.555 0.219,-9.417 -0.546,-3.883 -1.48,-6.87 -2.802,-8.96 -1.325,-2.111 -2.847,-3.527 -4.568,-4.248 -1.723,-0.742 -3.475,-0.988 -5.256,-0.738 -1.781,0.25 -3.408,0.971 -4.882,2.163 -1.455,1.167 -2.528,2.948 -3.22,5.343 -0.673,2.37 -0.737,5.497 -0.191,9.38 0.545,3.884 1.472,6.893 2.778,9.029 1.325,2.111 2.851,3.548 4.577,4.312 1.745,0.74 3.508,0.984 5.289,0.734 z m 32.313,3.86 -13.43,-46.521 11.811,-1.66 10.948,44.737 -1.623,0.13 0.974,-46.314 14.161,-1.99 13.669,44.255 -1.595,0.323 -1.808,-46.021 11.812,-1.66 -0.087,48.421 -17.573,2.469 -11.002,-39.051 1.159,-0.163 0.188,40.571 z m 68.501,-9.627 -11.2,1.574 -6.671,-47.471 17.669,-2.483 20.661,41.698 -2.028,0.744 -6.21,-44.188 11.167,-1.569 6.672,47.47 -17.798,2.502 -20.639,-41.537 2.19,-0.767 z"
       fill="#ffffff"
       id="path226" />
    <path
       d="m 252.843,164.542 c 3.433,-0.482 6.3,-0.393 8.603,0.268 2.303,0.661 4.081,1.79 5.333,3.386 1.274,1.593 2.071,3.527 2.391,5.801 0.323,2.296 0.149,4.333 -0.52,6.112 -0.671,1.757 -1.629,3.194 -2.873,4.309 -1.225,1.091 -2.538,1.79 -3.939,2.096 1.444,-0.159 3,0.016 4.669,0.526 1.668,0.509 3.163,1.491 4.483,2.947 1.321,1.455 2.171,3.535 2.551,6.238 0.353,2.51 0.17,4.866 -0.549,7.068 -0.722,2.18 -2.167,4.046 -4.333,5.597 -2.149,1.527 -5.208,2.57 -9.177,3.128 l -19.728,2.773 -6.672,-47.471 z m -5.743,23.125 -4.2,-2.561 9.366,-1.316 c 2.231,-0.314 3.793,-1.036 4.684,-2.168 0.912,-1.135 1.259,-2.485 1.038,-4.051 -0.147,-1.052 -0.496,-1.9 -1.046,-2.545 -0.529,-0.647 -1.28,-1.089 -2.254,-1.324 -0.974,-0.235 -2.169,-0.253 -3.585,-0.054 l -11.039,1.552 4.435,-6.039 z m 8.904,15.946 c 2.188,-0.308 3.746,-1.052 4.674,-2.233 0.928,-1.18 1.278,-2.586 1.049,-4.217 -0.121,-0.858 -0.381,-1.62 -0.781,-2.286 -0.379,-0.668 -0.894,-1.22 -1.545,-1.653 -0.631,-0.437 -1.384,-0.736 -2.26,-0.897 -0.876,-0.161 -1.85,-0.167 -2.923,-0.016 l -10.105,1.42 3.331,-3.618 2.773,19.728 -5.928,-4.582 z m 24.087,-34.039 4.435,-6.038 2.682,19.085 -3.018,-2.793 17.283,-2.428 1.221,8.689 -17.283,2.429 2.136,-3.484 2.701,19.214 -5.928,-4.582 23.462,-3.297 1.221,8.689 -29.834,4.193 -6.672,-47.471 29.834,-4.193 1.221,8.69 z m 30.71,35.232 4.749,-49.109 18.216,-2.56 18.069,45.902 -11.779,1.655 -14.426,-39.358 0.064,-0.009 -3.146,41.828 z m 7.601,-11.768 -1.235,-8.786 22.979,-3.23 1.235,8.787 z m 47.213,4.064 -11.199,1.574 -6.672,-47.471 17.669,-2.483 20.662,41.697 -2.029,0.745 -6.21,-44.188 11.167,-1.57 6.672,47.471 -17.798,2.501 -20.639,-41.536 2.19,-0.768 z"
       fill="#ffffff"
       id="path228" />
    <path
       d="m 261.762,290.107 c 3.726,-0.524 6.808,-0.419 9.246,0.314 2.438,0.733 4.313,1.946 5.627,3.638 1.31,1.67 2.128,3.661 2.453,5.973 0.331,2.357 0.158,4.464 -0.519,6.322 -0.681,1.835 -1.649,3.333 -2.905,4.494 -1.234,1.157 -2.537,1.901 -3.909,2.232 1.398,-0.151 2.945,0.032 4.643,0.549 1.72,0.513 3.258,1.522 4.614,3.025 1.378,1.5 2.265,3.653 2.659,6.459 0.36,2.559 0.176,4.999 -0.55,7.322 -0.73,2.3 -2.236,4.285 -4.519,5.956 -2.264,1.646 -5.551,2.772 -9.86,3.378 l -21.717,3.052 -6.979,-49.662 z m -5.579,24.062 -4.946,-2.944 9.697,-1.363 c 2.02,-0.284 3.392,-0.946 4.115,-1.986 0.743,-1.066 1.021,-2.261 0.835,-3.585 -0.129,-0.92 -0.43,-1.679 -0.903,-2.276 -0.451,-0.601 -1.115,-1.011 -1.993,-1.231 -0.881,-0.242 -1.995,-0.269 -3.342,-0.08 l -11.38,1.6 5.267,-6.989 z m 8.475,15.839 c 2.02,-0.284 3.411,-0.972 4.173,-2.063 0.782,-1.117 1.076,-2.36 0.884,-3.729 -0.095,-0.674 -0.299,-1.309 -0.612,-1.906 -0.312,-0.597 -0.739,-1.109 -1.28,-1.536 -0.518,-0.431 -1.168,-0.74 -1.95,-0.928 -0.759,-0.191 -1.644,-0.215 -2.654,-0.073 l -10.572,1.485 3.943,-4.193 2.801,19.932 -6.989,-5.267 z m 22.688,7.146 4.569,-51.285 21.582,-3.033 18.461,48.048 -13.905,1.954 -14.223,-40.369 0.067,-0.01 -2.645,42.741 z m 8.634,-11.857 -1.433,-10.202 24.511,-3.445 1.433,10.202 z m 59.141,3.224 c -3.681,0.518 -7.063,0.398 -10.145,-0.359 -3.085,-0.78 -5.645,-2.217 -7.679,-4.311 -2.011,-2.098 -3.26,-4.875 -3.746,-8.332 -0.041,-0.292 -0.082,-0.584 -0.123,-0.876 -0.041,-0.291 -0.082,-0.583 -0.123,-0.875 l 13.569,-1.907 c 0.035,0.247 0.069,0.494 0.104,0.741 0.035,0.247 0.069,0.494 0.104,0.741 0.221,1.571 0.888,2.816 2.001,3.735 1.136,0.917 2.703,1.234 4.701,0.953 1.93,-0.271 3.406,-0.764 4.427,-1.48 1.04,-0.741 1.469,-1.763 1.286,-3.065 -0.136,-0.965 -0.789,-1.789 -1.961,-2.471 -1.149,-0.685 -2.663,-1.274 -4.54,-1.765 -1.855,-0.495 -3.907,-0.928 -6.157,-1.298 -2.438,-0.413 -4.801,-1.099 -7.087,-2.06 -2.264,-0.963 -4.199,-2.351 -5.804,-4.163 -1.608,-1.834 -2.622,-4.243 -3.042,-7.229 -0.432,-3.075 0.052,-5.821 1.452,-8.238 1.397,-2.439 3.45,-4.444 6.159,-6.015 2.731,-1.575 5.859,-2.609 9.383,-3.105 3.659,-0.514 7.005,-0.4 10.039,0.341 3.056,0.737 5.582,2.099 7.578,4.085 1.996,1.985 3.224,4.617 3.685,7.894 0.041,0.291 0.08,0.572 0.118,0.841 0.038,0.27 0.077,0.55 0.118,0.842 l -13.568,1.907 c -0.016,-0.112 -0.04,-0.28 -0.071,-0.505 -0.035,-0.247 -0.06,-0.426 -0.076,-0.539 -0.205,-1.459 -0.794,-2.635 -1.766,-3.528 -0.95,-0.897 -2.424,-1.205 -4.422,-0.924 -1.975,0.278 -3.451,0.851 -4.427,1.721 -0.954,0.867 -1.335,1.985 -1.143,3.354 0.136,0.965 0.705,1.755 1.707,2.369 0.998,0.592 2.328,1.092 3.987,1.5 1.682,0.405 3.572,0.826 5.671,1.263 3.156,0.632 5.958,1.429 8.404,2.39 2.444,0.938 4.429,2.273 5.954,4.004 1.547,1.728 2.531,4.085 2.95,7.07 0.439,3.12 -0.031,5.887 -1.408,8.301 -1.381,2.391 -3.474,4.357 -6.279,5.895 -2.782,1.536 -6.059,2.569 -9.83,3.098 z m 60.938,-60.099 6.98,49.662 -13.603,1.911 -3.227,-22.962 6.597,2.472 -27.441,3.856 5.688,-3.992 3.199,22.76 -13.603,1.912 -6.979,-49.662 13.602,-1.912 3.246,23.097 -6.577,-2.337 27.44,-3.856 -5.683,4.026 -3.241,-23.064 z"
       fill="#00919e"
       id="path230" />
    <path
       id="path235"
       style="display:inline;fill:#ffffff"
       d="m 372.11719,330.32617 c -0.198,0.02 -0.40542,0.053 -0.60742,0.084 0.532,2.902 1.05998,5.80765 1.58398,8.72265 -0.914,0.494 -1.8273,0.98105 -2.7793,1.49805 -0.152,-0.406 -0.17095,-0.79959 -0.25195,-1.18359 -0.082,-0.397 -0.14661,-0.79599 -0.22461,-1.20899 -0.201,0.029 -0.39161,0.055 -0.59961,0.082 0.135,0.754 0.2742,1.50652 0.4082,2.22852 -0.193,0.158 -0.36401,0.2965 -0.54101,0.4375 -0.095,0.076 -0.18035,0.1487 -0.27735,0.2207 -0.21899,0.16 -0.34945,0.35852 -0.43945,0.60352 -0.145,0.409 -0.24023,0.83279 -0.49023,1.21679 -0.074,0.116 -0.0174,0.22771 0.0586,0.34571 0.203,0.327 0.3776,0.67467 0.55859,1.01367 0.094,0.181 0.065,0.33476 -0.002,0.50976 -0.216,0.588 -0.38576,1.18091 -0.63476,1.75391 -0.096,0.229 -0.10346,0.42953 -0.0645,0.64453 2.063,11.142 4.04236,22.29222 5.94336,33.44922 0.019,0.14 0.0423,0.28455 0.0703,0.43555 -0.41299,0.096 -0.8109,0.12031 -1.2539,0.0703 -0.018,-0.103 -0.0366,-0.22366 -0.0586,-0.34766 -0.989,-5.75 -1.99634,-11.49323 -3.02734,-17.24023 -0.006,-0.013 -0.0107,-0.0271 -0.0117,-0.0391 0.017,-0.346 -0.20494,-0.49472 -0.58594,-0.51172 -0.092,-0.491 -0.18143,-0.98724 -0.27343,-1.49024 -0.287,0.038 -0.55819,0.077 -0.86719,0.125 -0.035,-0.183 -0.0715,-0.34572 -0.10352,-0.51171 -0.031,-0.167 -0.0628,-0.33977 -0.0918,-0.50977 -0.035,-0.166 -0.0598,-0.33758 -0.0899,-0.51758 -0.297,0.042 -0.56804,0.08 -0.87304,0.125 -0.093,-0.547 -0.2256,-1.05848 -0.5586,-1.52148 -0.338,-0.468 -0.82047,-0.79911 -1.35547,-1.03711 -0.523,-0.232 -1.129,-0.32385 -1.75,-0.33985 -0.036,-0.18 -0.0694,-0.36364 -0.10742,-0.55664 -0.191,0.028 -0.36498,0.054 -0.58398,0.084 -0.061,-0.227 -0.0936,-0.45388 -0.14258,-0.67188 -0.041,-0.222 -0.0839,-0.4475 -0.12891,-0.6875 -0.225,0.034 -0.42764,0.0665 -0.68164,0.10352 0.086,0.431 0.17272,0.87408 0.26172,1.33008 -0.143,0.029 -0.25358,0.055 -0.39258,0.084 0.033,0.181 0.0695,0.37555 0.10547,0.56055 -0.737,0.154 -1.28836,0.51767 -1.69336,1.01367 -0.334,0.409 -0.50026,0.89548 -0.57226,1.39648 -0.027,0.196 0.041,0.39432 0,0.57032 -0.044,0.206 0.0122,0.38546 0.0312,0.60546 -0.411,0.065 -0.82691,0.12827 -1.25391,0.19727 0.115,0.58 0.22322,1.12788 0.32422,1.67188 -0.185,0.21 -0.35822,0.41034 -0.57422,0.65234 0.066,0.342 0.14742,0.75059 0.23242,1.18359 -0.166,0.025 -0.32118,0.0511 -0.49218,0.0801 0.03,0.156 0.0562,0.27539 0.0762,0.40039 0.716,3.637 1.41637,7.2692 2.10937,10.90821 0.393,1.10199 0.50924,2.25271 0.74024,3.38671 0.233,1.146 0.44029,2.29641 0.65429,3.44141 0.024,0.138 0.0498,0.27667 0.0937,0.51367 -0.321,-0.39 -0.58357,-0.70236 -0.89257,-1.06836 -0.072,0.358 -0.13055,0.64078 -0.18555,0.92578 -0.067,0.33 -0.0675,0.32882 -0.39453,0.38282 -0.032,0.003 -0.061,0.009 -0.12305,0.0195 -0.736,-3.872 -1.48037,-7.73619 -2.23437,-11.61719 -0.363,0.055 -0.6955,0.10897 -1.0625,0.16797 -0.1,-0.517 -0.19579,-1.01425 -0.30079,-1.53125 -0.365,0.059 -0.69359,0.11187 -1.05859,0.17187 -0.032,-0.169 -0.0486,-0.32375 -0.10156,-0.46875 -0.104,-0.27 0.006,-0.51776 0.10547,-0.75976 0.134,-0.335 0.30161,-0.66202 0.47461,-1.04102 -0.757,0.122 -1.46107,0.23456 -2.16407,0.35157 -0.261,0.044 -0.52643,0.0508 -0.77343,0.13281 -0.944,0.314 -1.94874,0.37954 -2.92774,0.56054 -0.99,0.187 -2.00665,0.27925 -2.97265,0.53125 -0.976,0.255 -1.98447,0.36261 -2.98047,0.59961 0.207,0.966 0.4149,1.9375 0.6289,2.9375 -0.275,0.008 -0.52725,0.0414 -0.78125,0.0274 -0.308,-0.024 -0.62497,-0.0247 -0.91797,0.0273 -3.017,0.516 -6.01682,1.07253 -9.04882,1.64453 0.119,0.531 0.23932,1.05466 0.36132,1.59766 -0.771,0.149 -1.5111,0.2895 -2.2871,0.4375 0.034,0.134 0.0588,0.25791 0.0918,0.37891 0.451,1.982 0.90356,3.96326 1.35156,5.94726 0.058,0.241 0.0526,0.23739 -0.23242,0.40039 -0.126,0.066 -0.22633,0.20042 -0.36133,0.23242 -0.318,0.076 -0.50901,0.32185 -0.79101,0.46485 -0.241,0.116 -0.49492,0.29334 -0.66992,0.52734 -0.148,0.194 -0.3291,0.37741 -0.4961,0.56641 0.063,0.277 0.12446,0.53836 0.18946,0.81836 -0.246,0.045 -0.47671,0.0888 -0.72071,0.13476 0.148,0.645 0.29041,1.27283 0.44141,1.92383 -0.477,0.093 -0.93316,0.1853 -1.41016,0.2793 -1.133,-4.893 -2.28908,-9.78588 -3.45507,-14.67188 -0.246,-0.015 -0.46918,-0.047 -0.70118,0.002 -0.227,0.049 -0.46736,0.0618 -0.69336,0.0508 -0.524,-0.02 -1.03845,0.1155 -1.56445,0.0625 -0.192,-0.016 -0.39556,0.0428 -0.60156,0.0508 -0.209,0.008 -0.42953,-0.0233 -0.64453,0.0137 -0.214,0.038 -0.43549,0.0559 -0.64649,0.0469 -0.563,-0.031 -1.07056,0.149 -1.60156,0.25 -0.727,0.134 -1.45322,0.29618 -2.19922,0.45118 0.078,0.301 0.15352,0.58829 0.22852,0.90429 -0.102,0.032 -0.19644,0.0864 -0.27344,0.0684 -0.259,-0.046 -0.49128,0.0422 -0.73828,0.0762 -0.325,0.046 -0.65656,0.0682 -0.97656,0.11914 -0.323,0.056 -0.63622,0.19246 -0.94922,0.18946 -0.379,-0.009 -0.71722,0.0863 -1.07422,0.1543 -0.478,0.092 -0.90725,0.34662 -1.40625,0.39062 -0.265,0.19 -0.60905,0.23155 -0.87305,0.43555 -0.206,0.165 -0.28875,0.29911 -0.21875,0.53711 0.232,0.845 0.44106,1.69868 0.66406,2.55468 0.016,0.054 0.0309,0.11011 0.0449,0.16211 -0.274,0.106 -0.52688,0.2025 -0.79688,0.3125 0.781,3.011 1.56175,6.03261 2.34375,9.09961 -0.25,0.069 -0.49923,0.11388 -0.74023,0.17188 -0.246,0.051 -0.49319,0.12029 -0.74219,0.15429 -0.141,0.019 -0.2875,-0.0261 -0.4375,-0.0371 -0.214,-0.026 -0.4343,-0.0565 -0.6543,-0.0645 -0.168,-0.004 -0.25411,-0.0542 -0.28711,-0.20117 -0.043,-0.186 -0.0905,-0.36431 -0.14453,-0.57031 -0.402,0.022 -0.80198,0.01 -1.20898,0.0527 -0.207,0.025 -0.42486,0.0263 -0.63086,0.0703 -0.195,0.039 -0.38771,-0.038 -0.59571,0.041 -0.201,0.075 -0.42748,0.0994 -0.64648,0.14844 -0.195,0.043 -0.39947,0.0966 -0.60547,0.14062 -0.405,0.078 -0.75831,0.25282 -1.07031,0.50781 -0.104,0.082 -0.20172,0.23224 -0.38672,0.11524 -0.436,0.048 -0.8725,0.0379 -1.3125,0.0859 -0.596,0.064 -1.17019,0.19198 -1.74219,0.33398 -0.192,0.048 -0.36192,0.13689 -0.54492,0.21289 -0.178,0.075 -0.38169,0.0492 -0.55469,0.19922 -0.14,0.124 -0.38107,0.13942 -0.58007,0.23242 -0.38701,0.178 -0.75229,0.37375 -1.11329,0.59375 -0.097,0.067 -0.17006,0.0756 -0.28906,0.0566 -0.735,-0.135 -1.47031,-0.27717 -2.19531,-0.45117 -0.355,-0.09 -0.71222,-0.1428 -1.07422,-0.2168 -0.347,-0.066 -0.69925,-0.12298 -1.03125,-0.20898 -0.13,-0.035 -0.28798,-0.14295 -0.33398,-0.25195 -0.159,-0.379 -0.43615,-0.70136 -0.61915,-1.06836 -0.09,-0.18 -0.24237,-0.32819 -0.35937,-0.49219 -0.203,0.052 -0.39019,0.0955 -0.61719,0.14648 -0.073,-0.206 -0.12554,-0.42562 -0.18554,-0.64062 -0.068,-0.22 -0.12932,-0.44278 -0.19532,-0.67578 -0.244,0.059 -0.47333,0.11573 -0.73632,0.17773 -0.71801,-2.5 -1.43307,-4.98728 -2.16407,-7.48828 -1.014,0.252 -1.99095,0.49209 -3.00195,0.7461 -0.108,-0.36101 -0.21231,-0.71513 -0.32031,-1.07813 -2.981,0.746 -5.92691,1.50444 -8.87891,2.27344 0.059,0.182 0.10797,0.35368 0.16797,0.55469 -0.47,0.259 -0.9293,0.51548 -1.4043,0.77148 1.109,3.558 2.19721,7.0973 3.28321,10.6543 -0.638,0.166 -1.26639,0.33495 -1.9004,0.50195 0.089,0.301 0.1823,0.59134 0.2793,0.90234 -0.467,0.123 -0.91581,0.24314 -1.38281,0.36914 0.312,1.005 0.61364,1.97696 0.93164,3.00196 -0.27,-0.068 -0.50237,-0.11983 -0.73437,-0.17383 -0.777,-0.184 -1.56366,-0.37078 -2.34766,-0.55078 -0.139,-0.032 -0.29664,-0.0601 -0.43164,-0.0371 -0.644,0.095 -1.30769,0.039 -1.92969,0.25 -0.5,-0.032 -0.94848,0.16355 -1.39648,0.31055 -0.848,0.283 -1.65386,0.65048 -2.38086,1.14648 -0.554,0.374 -1.00436,0.83659 -1.44336,1.30859 -0.132,0.14 -0.19592,0.33177 -0.29492,0.50977 -0.385,0.019 -0.73375,-0.0808 -1.09375,-0.13281 -0.028,-0.006 -0.054,-0.0292 -0.082,-0.0332 -0.602,-0.112 -1.2055,-0.2105 -1.8125,-0.3125 -0.161,-0.031 -0.31646,0.0868 -0.48046,0.008 -0.466,0.13 -0.95669,0.14793 -1.42969,0.21093 -0.818,0.108 -1.5698,0.40291 -2.3418,0.62891 -0.318,0.089 -0.62273,0.26411 -0.92773,0.41211 -0.303,0.15 -0.59463,0.31665 -0.89063,0.47265 -0.362,0.18401 -0.69883,0.41438 -1.04883,0.60938 -0.303,0.173 -0.47051,0.47406 -0.60351,0.78906 -1.818,-0.097 -3.44066,0.39022 -4.84766,1.44922 -0.23,-0.083 -0.45859,-0.15323 -0.68359,-0.24023 -0.259,-0.104 -0.53125,-0.0436 -0.78125,-0.0176 -0.443,0.047 -0.89217,-0.005 -1.32617,0.11133 -0.126,-0.089 -0.23752,0.0183 -0.35352,0.0293 -0.118,0.013 -0.23561,4.4e-4 -0.34961,0.0234 -0.33,0.067 -0.65647,0.12684 -0.98047,0.21485 -0.334,0.085 -0.66033,0.19973 -0.98633,0.30273 -0.048,0.018 -0.0937,0.028 -0.13867,0.043 3.331,9.308 6.6006,18.62112 9.8086,27.95312 62.114,-19.429 127.86289,-31.23378 195.58789,-34.42578 -0.554,-9.16 -1.16027,-18.29798 -1.82227,-27.45898 -0.273,0.115 -0.33039,0.3794 -0.52539,0.5664 -0.569,-0.433 -1.16406,-0.41725 -1.78906,-0.15625 -0.217,0.089 -0.44653,0.16011 -0.64453,0.28711 -0.105,0.058 -0.18578,0.0544 -0.30078,0.0234 -0.283,-0.082 -0.52652,-0.2753 -0.85352,-0.2793 -0.053,0.001 -0.12834,-0.1164 -0.15234,-0.1914 -0.033,-0.09 -0.0203,-0.19783 -0.0293,-0.29883 -0.192,-2.47 -0.38784,-4.93334 -0.58984,-7.40234 -0.007,-0.142 -0.0242,-0.28346 -0.0352,-0.43946 -1.253,0.07 -2.4727,0.13494 -3.7207,0.21094 -0.034,-0.427 -0.0675,-0.841 -0.10352,-1.25 -0.42,-0.04 -2.63505,0.0753 -3.74805,0.19727 0.024,0.264 0.0491,0.53279 0.0801,0.84179 -0.374,0.026 -0.75517,-0.0141 -1.07617,0.0859 -0.313,0.096 -0.63927,0.18025 -0.94727,0.28125 -0.314,0.101 -0.65342,0.15734 -0.98242,0.27734 0.238,2.533 0.47208,5.06547 0.70508,7.60547 -0.131,0.05 -0.15942,-0.0746 -0.23242,-0.0996 -0.084,-0.031 -0.17724,-0.0585 -0.24024,-0.10547 -0.233,-0.178 -0.53611,-0.10421 -0.78711,-0.19921 -0.33199,0.119 -0.70584,0.17168 -0.96484,0.42968 -0.116,0.111 -0.22308,0.23652 -0.33008,0.35352 -0.521,-0.1 -1.00601,-0.26095 -1.54101,-0.25195 -0.139,0.002 -0.29308,-0.0609 -0.45508,-0.0469 -0.4,0.034 -0.81498,0.0265 -1.20899,0.10352 -0.17399,0.042 -0.35525,0.0722 -0.53124,0.11718 -0.187,0.048 -0.35816,0.13013 -0.53516,0.20313 -0.164,0.069 -0.31947,0.14489 -0.48047,0.21289 -0.013,-0.009 -0.0311,-0.0134 -0.0391,-0.0234 -0.01,-0.013 -0.0224,-0.0211 -0.0254,-0.0351 -0.367,-3.606 -0.73719,-7.21394 -1.11719,-10.83594 -8.186,0.617 -16.3287,1.34912 -24.4707,2.20312 -0.033,-0.173 -0.0617,-0.33567 -0.0977,-0.51367 -3.012,0.319 -6.01302,0.649 -9.04102,1 0.608,4.057 1.20207,8.12508 1.78907,12.20508 -0.429,-0.025 -0.81589,-0.0611 -1.21289,-0.0391 -0.225,0.013 -0.46541,-0.0472 -0.69141,0.01 -0.686,0.167 -1.38845,0.3001 -1.93945,0.7461 -0.091,0.068 -0.19255,0.12893 -0.31055,0.21093 -0.071,-0.474 -0.14084,-0.9544 -0.21484,-1.4414 -0.168,0.017 -0.30733,0.0347 -0.48633,0.0547 -0.067,-0.438 -0.14355,-0.8572 -0.18555,-1.2832 -0.014,-0.146 -0.0858,-0.28814 -0.17383,-0.36914 -0.436,-0.393 -0.7322,-0.89097 -1.1582,-1.29297 -0.085,-0.075 -0.16334,-0.16397 -0.15234,-0.29297 0.008,-0.068 -0.0143,-0.13893 -0.0293,-0.21093 -1.648,-10.714 -3.37264,-21.42635 -5.18164,-32.15235 -0.227,-0.013 -0.45369,0.0425 -0.67969,0.0625 -0.232,0.028 -0.46028,0.0607 -0.73828,0.0937 0.034,-0.414 0.17194,-0.7752 0.33594,-1.1582 -0.195,0.024 -0.38585,0.0473 -0.58985,0.0723 -0.063,-0.35401 -0.12082,-0.67347 -0.17382,-0.98047 0.255,-0.378 0.50381,-0.75363 0.75781,-1.14063 -1.275,-0.165 -2.5196,-0.32451 -3.8086,-0.47851 -0.09,-0.523 -0.19101,-1.08321 -0.29101,-1.65821 -0.216,0.031 -0.39633,0.052 -0.61133,0.082 0.095,0.526 0.18725,1.05543 0.28125,1.60743 -0.375,0.052 -0.673,-0.10868 -1,-0.13868 -0.328,-0.023 -0.64758,-0.0983 -1.01758,-0.15625 -0.517,-2.898 -1.04312,-5.81542 -1.57812,-8.73242 z"
       mask="url(#mask27284)" />
  </g>
</svg>
