<svg width="538" height="781" viewBox="0 0 538 781" fill="none" xmlns="http://www.w3.org/2000/svg">
<g class="flame">
    <path d="M63.8793 516.066L114.864 497L317.173 547.048L338.79 600.273L360 643.171L344.908 700.765L303.713 634.432L327.777 719.831V765.509L308.199 739.294L291.884 707.915L282.095 728.569V756.771L264.148 773.453L247.017 781V756.771L241.715 736.513L220.097 756.771L196.848 736.513L180.533 691.232L166.257 719.831V744.457L136.482 707.915L95.2861 736.513L87.9442 707.915L42.2617 719.831L54.906 651.909L22.6835 663.825L42.2617 600.273L8 611.394V577.632L29.6176 540.692L63.8793 516.066Z" fill="#B03025"/>
    <path d="M62.0499 628.544L71.3729 594.418V565.797L38.1831 588.914L52.354 560.659L75.475 536.441L94.4938 519.928L125.819 504.15L302.955 549.284L338.383 642.488H326.822V667.441L293.632 621.572L302.955 676.981L306.312 714.043L282.445 686.889L271.257 690.925L266.782 722.849L261.561 730.555L235.084 673.679L226.88 716.244L206.742 680.651V709.639L198.911 658.634L201.894 628.544L185.859 667.441V638.085L176.536 673.679L163.111 667.441L157.517 690.925H143.346L138.498 673.679V654.964L114.259 683.586L100.833 654.964L94.4938 661.936L75.475 667.441L84.0521 624.141V601.757L62.0499 628.544Z" fill="#CA8341"/>
    <path d="M106.707 553.072L140.53 508.916L276.165 541.612L313.094 620.15L309.988 632.959L287.21 595.544L282.378 617.116L276.165 608.689L287.21 667.003L254.767 623.183L244.759 664.643L235.44 635.992L232.334 605.656L212.317 655.879V623.183L204.724 578.69L189.538 608.689V587.117L169.866 617.116L160.892 632.959L151.229 608.689L127.07 635.992L106.707 608.689V553.072Z" fill="#DFC25B"/>
</g>
<path d="M221.972 544.128C100.952 511.97 78.2094 467.128 78.2094 467.128C70.0279 503.8 138.474 540.31 212.751 559.077C368.006 598.308 369.548 538.261 369.548 538.261C369.548 538.261 331.119 573.13 221.972 544.128V544.128Z" fill="#38312B"/>
<path d="M477.735 134.557C480.766 117.146 417.782 85.9522 334.645 64.2732C251.246 42.5246 181.733 38.8549 176.283 55.7171L173.085 67.9777C173.085 67.9777 271.709 142.495 310.91 152.148C351.065 162.036 475.963 141.346 475.963 141.346" fill="#38312B"/>
<path d="M469.221 132.22C469.221 132.22 421.001 97.8987 340.202 76.829C231.051 48.3674 183.396 58.0383 183.396 58.0383C183.396 58.0383 195.201 82.1633 323.005 115.137C422.12 140.713 469.221 132.22 469.221 132.22V132.22Z" fill="#67452B"/>
<path d="M78.1493 467.359C78.1493 467.359 99.9937 512.857 221.014 545.018C330.16 574.024 369.7 538.661 369.7 538.661L476.152 140.637C476.152 140.637 431.61 154.574 323.429 127.479C221.031 101.828 173.411 66.746 173.411 66.746L78.1493 467.359Z" fill="#006561"/>
<path d="M395.459 275.54L419.535 286.926C419.535 286.926 338.416 478.969 332.991 478.479C195.08 466.012 136.839 425.412 136.839 425.412L158.968 215.501L190.777 221.046L195.229 159.345C195.229 159.345 293.243 164.959 420.528 219.096C423.024 220.159 395.459 275.54 395.459 275.54V275.54Z" fill="#B58C51"/>
<path d="M381.905 282.105L408.996 295.274C408.996 295.274 335.026 469.642 330.152 469.242C206.352 458.808 143.906 419.398 143.906 419.398L165.238 227.58L198.457 233.335L202.955 176.228C202.955 176.228 290.965 180.637 404.877 229.69C407.113 230.652 381.905 282.105 381.905 282.105V282.105Z" fill="#19181B"/>
<path d="M219.808 266.331L203.877 262.123L210.054 258.208L198.684 301.257L187.498 298.302L198.868 255.254L202.369 261.725L186.406 257.509L188.647 249.025L222.049 257.847L219.808 266.331ZM232.869 311.126C229.936 310.352 227.296 309.105 224.949 307.387C222.628 305.654 220.741 303.508 219.287 300.951C217.834 298.393 216.924 295.475 216.557 292.196C216.217 288.901 216.562 285.306 217.591 281.41C218.62 277.513 220.093 274.227 222.01 271.551C223.927 268.875 226.136 266.792 228.636 265.301C231.157 263.816 233.852 262.903 236.721 262.562C239.61 262.227 242.543 262.453 245.517 263.239C248.492 264.024 251.142 265.273 253.469 266.986C255.816 268.704 257.72 270.831 259.178 273.368C260.637 275.905 261.529 278.807 261.854 282.075C262.199 285.348 261.857 288.933 260.828 292.83C259.799 296.726 258.313 300.02 256.37 302.711C254.453 305.387 252.22 307.475 249.673 308.976C247.146 310.483 244.435 311.414 241.54 311.769C238.671 312.11 235.781 311.895 232.869 311.126ZM235.201 302.297C236.961 302.761 238.74 302.727 240.539 302.194C242.344 301.64 244.021 300.38 245.571 298.414C247.143 296.453 248.426 293.588 249.422 289.817C250.423 286.025 250.72 282.91 250.31 280.471C249.907 278.012 249.052 276.116 247.745 274.785C246.444 273.433 244.924 272.527 243.185 272.068C241.446 271.609 239.667 271.643 237.847 272.171C236.053 272.683 234.374 273.909 232.808 275.849C231.269 277.773 229.999 280.631 228.997 284.422C227.996 288.214 227.684 291.347 228.061 293.822C228.464 296.282 229.314 298.198 230.61 299.571C231.932 300.929 233.462 301.837 235.201 302.297ZM263.494 318.375L269.137 270.284L280.669 273.33L273.429 318.814L271.883 318.305L290.724 275.986L304.55 279.637L300.006 325.733L298.41 325.412L314.574 282.285L326.106 285.331L307.266 329.936L290.109 325.404L295.097 285.141L296.228 285.439L280.682 322.915L263.494 318.375ZM330.375 336.04L319.44 333.152L331.682 286.804L348.933 291.36L351.826 337.806L349.667 337.706L361.062 294.563L371.966 297.443L359.724 343.791L342.347 339.202L339.413 292.913L341.729 293.054L330.375 336.04Z" fill="white"/>
<path d="M244.559 197.348C247.911 198.233 250.52 199.426 252.387 200.928C254.254 202.429 255.455 204.159 255.992 206.115C256.549 208.078 256.535 210.169 255.948 212.39C255.356 214.631 254.407 216.442 253.101 217.823C251.801 219.183 250.361 220.136 248.783 220.683C247.231 221.214 245.749 221.349 244.339 221.089C245.732 221.501 247.098 222.266 248.44 223.382C249.781 224.498 250.778 225.983 251.431 227.836C252.085 229.689 252.063 231.936 251.366 234.575C250.718 237.026 249.637 239.127 248.121 240.878C246.611 242.608 244.556 243.769 241.958 244.36C239.385 244.935 236.162 244.711 232.286 243.688L213.024 238.6L225.266 192.252L244.559 197.348ZM230.306 216.441L227.426 212.453L236.57 214.869C238.749 215.444 240.468 215.383 241.728 214.685C243.009 213.992 243.851 212.881 244.255 211.352C244.526 210.326 244.533 209.409 244.276 208.601C244.04 207.799 243.518 207.101 242.711 206.507C241.905 205.913 240.81 205.433 239.427 205.068L228.65 202.222L235.078 198.373L230.306 216.441ZM232.336 234.591C234.472 235.155 236.197 235.073 237.51 234.344C238.823 233.615 239.69 232.455 240.11 230.863C240.332 230.025 240.387 229.222 240.276 228.453C240.187 227.69 239.925 226.982 239.493 226.33C239.081 225.683 238.502 225.116 237.757 224.628C237.012 224.14 236.116 223.757 235.069 223.481L225.202 220.875L229.675 218.829L224.587 238.091L220.898 231.57L232.336 234.591ZM267.729 212.543L274.158 208.695L269.236 227.328L267.536 223.585L284.409 228.042L282.169 236.526L265.295 232.069L268.614 229.685L263.659 248.444L259.969 241.923L282.876 247.974L280.635 256.458L251.507 248.764L263.748 202.416L292.877 210.11L290.636 218.594L267.729 212.543ZM282.391 256.921L305.796 213.488L323.581 218.186L322.454 267.503L310.954 264.466L312.904 222.593L312.967 222.609L293.86 259.951L282.391 256.921ZM293.957 249.018L296.223 240.44L318.659 246.366L316.393 254.944L293.957 249.018ZM335.909 271.057L324.974 268.169L337.216 221.821L354.466 226.377L357.359 272.823L355.2 272.724L366.596 229.581L377.499 232.46L365.257 278.809L347.881 274.219L344.947 227.93L347.263 228.071L335.909 271.057Z" fill="white"/>
<path d="M204.133 316.561C207.771 317.521 210.572 318.812 212.535 320.433C214.498 322.053 215.758 323.898 216.313 325.967C216.874 328.014 216.857 330.166 216.26 332.423C215.653 334.725 214.677 336.6 213.332 338.05C211.994 339.479 210.521 340.484 208.913 341.068C207.328 341.657 205.838 341.838 204.444 341.611C205.792 342.013 207.148 342.782 208.513 343.916C209.9 345.056 210.927 346.581 211.594 348.493C212.283 350.41 212.266 352.738 211.543 355.477C210.883 357.975 209.768 360.154 208.199 362.014C206.635 363.851 204.477 365.098 201.725 365.755C199 366.395 195.534 366.159 191.326 365.048L170.124 359.448L182.93 310.96L204.133 316.561ZM189.667 336.582L186.248 331.952L195.715 334.452C197.687 334.973 199.209 334.894 200.279 334.216C201.377 333.521 202.096 332.527 202.438 331.234C202.675 330.336 202.691 329.519 202.487 328.785C202.304 328.057 201.85 327.422 201.126 326.879C200.408 326.314 199.392 325.858 198.077 325.511L186.966 322.576L194.529 318.173L189.667 336.582ZM191.343 354.467C193.315 354.988 194.864 354.893 195.99 354.182C197.143 353.455 197.896 352.424 198.249 351.087C198.423 350.429 198.481 349.765 198.424 349.093C198.367 348.422 198.172 347.784 197.839 347.181C197.528 346.583 197.049 346.046 196.401 345.57C195.775 345.1 194.969 344.734 193.982 344.474L183.66 341.748L188.92 339.409L183.78 358.87L179.377 351.307L191.343 354.467ZM209.491 369.846L233.573 324.336L254.645 329.902L253.047 381.35L239.471 377.764L242 335.037L242.066 335.055L223.068 373.431L209.491 369.846ZM222.045 362.26L224.675 352.299L248.607 358.62L245.976 368.581L222.045 362.26ZM275.316 388.146C271.722 387.197 268.651 385.776 266.103 383.884C263.561 381.97 261.758 379.653 260.695 376.934C259.653 374.221 259.578 371.177 260.469 367.802C260.545 367.517 260.62 367.232 260.695 366.947C260.77 366.662 260.846 366.377 260.921 366.093L274.169 369.592C274.105 369.833 274.041 370.074 273.978 370.315C273.914 370.556 273.85 370.797 273.787 371.038C273.381 372.572 273.514 373.979 274.184 375.257C274.876 376.542 276.198 377.442 278.148 377.957C280.033 378.455 281.585 378.572 282.803 378.308C284.049 378.027 284.84 377.251 285.176 375.98C285.425 375.038 285.141 374.025 284.326 372.942C283.532 371.865 282.365 370.737 280.824 369.556C279.306 368.381 277.582 367.188 275.651 365.974C273.563 364.649 271.651 363.101 269.915 361.33C268.201 359.564 266.956 357.535 266.178 355.243C265.406 352.929 265.405 350.315 266.174 347.4C266.967 344.398 268.477 342.054 270.704 340.368C272.937 338.66 275.607 337.607 278.713 337.208C281.841 336.815 285.125 337.073 288.566 337.982C292.138 338.926 295.179 340.327 297.689 342.185C300.221 344.05 302.022 346.284 303.093 348.887C304.163 351.491 304.276 354.393 303.431 357.592C303.356 357.877 303.283 358.151 303.214 358.414C303.144 358.677 303.072 358.951 302.997 359.236L289.749 355.737C289.778 355.627 289.821 355.463 289.879 355.244C289.943 355.003 289.989 354.828 290.018 354.718C290.395 353.293 290.307 351.981 289.757 350.781C289.229 349.586 287.989 348.731 286.039 348.216C284.11 347.707 282.527 347.664 281.29 348.087C280.075 348.516 279.291 349.4 278.938 350.736C278.689 351.679 278.907 352.627 279.593 353.582C280.284 354.515 281.316 355.491 282.688 356.509C284.082 357.534 285.661 358.655 287.426 359.871C290.091 361.677 292.365 363.496 294.249 365.33C296.138 367.142 297.45 369.141 298.185 371.328C298.943 373.521 298.936 376.075 298.166 378.989C297.362 382.036 295.857 384.405 293.652 386.096C291.452 387.766 288.762 388.767 285.579 389.098C282.419 389.436 278.998 389.118 275.316 388.146ZM354.78 356.35L341.974 404.837L328.693 401.33L334.615 378.911L339.738 383.745L312.947 376.669L319.737 375.192L313.868 397.414L300.587 393.906L313.394 345.419L326.674 348.927L320.718 371.477L315.56 366.774L342.351 373.85L335.552 375.36L341.5 352.843L354.78 356.35Z" fill="#00919E"/>
<mask id="mask0_359_3720" style="mask-type:alpha" maskUnits="userSpaceOnUse" x="143" y="176" width="266" height="294">
<path d="M381.905 282.105L408.996 295.274C408.996 295.274 335.026 469.642 330.152 469.242C206.352 458.808 143.906 419.398 143.906 419.398L165.238 227.58L198.457 233.335L202.955 176.228C202.955 176.228 290.965 180.637 404.877 229.69C407.113 230.652 381.905 282.105 381.905 282.105Z" fill="#1A191C"/>
</mask>
<g mask="url(#mask0_359_3720)">
<path fill-rule="evenodd" clip-rule="evenodd" d="M140.765 447.879C141.424 438.033 142.018 428.182 142.554 418.31C142.601 418.314 142.646 418.322 142.697 418.324C143.038 418.356 143.384 418.376 143.725 418.427C144.057 418.471 144.382 418.543 144.712 418.61C144.826 418.633 144.93 418.689 145.044 418.723C145.156 418.757 145.299 418.702 145.381 418.833C145.826 418.894 146.22 419.116 146.646 419.244C146.886 419.317 147.161 419.367 147.361 419.564C147.533 419.731 147.716 419.884 147.896 420.05C149.603 419.618 151.289 419.797 152.927 420.591C153.171 420.352 153.442 420.139 153.788 420.097C154.187 420.052 154.587 419.972 154.991 419.942C155.325 419.913 155.658 419.872 155.996 419.851C156.335 419.833 156.684 419.789 157.011 419.831C157.811 419.921 158.618 419.942 159.414 420.16C159.874 420.285 160.334 420.458 160.814 420.519C160.934 420.655 161.124 420.605 161.26 420.696C161.78 421.026 162.298 421.351 162.809 421.687C162.833 421.701 162.849 421.733 162.873 421.75C163.185 421.937 163.467 422.166 163.829 422.297C163.99 422.172 164.122 422.018 164.298 421.94C164.886 421.675 165.48 421.423 166.135 421.294C166.998 421.117 167.884 421.091 168.775 421.158C169.245 421.197 169.735 421.191 170.183 421.414C170.838 421.46 171.429 421.769 172.058 421.931C172.193 421.962 172.326 422.047 172.442 422.131C173.095 422.601 173.748 423.078 174.394 423.549C174.587 423.688 174.78 423.827 175.002 423.995C175.106 422.927 175.206 421.913 175.307 420.865C175.787 420.93 176.248 420.994 176.725 421.061C176.756 420.737 176.784 420.433 176.818 420.122C177.467 420.213 178.11 420.301 178.763 420.395C179.14 416.695 179.509 413.01 179.865 409.3C180.402 409.248 180.925 409.191 181.458 409.134C181.481 408.926 181.501 408.748 181.518 408.557C184.537 408.992 187.547 409.434 190.583 409.902C190.543 410.279 190.502 410.644 190.461 411.018C191.491 411.176 192.486 411.335 193.519 411.496C193.223 414.084 192.918 416.653 192.611 419.237C192.878 419.281 193.112 419.318 193.359 419.357C193.33 419.599 193.3 419.827 193.277 420.057C193.25 420.278 193.214 420.502 193.201 420.719C193.431 420.761 193.62 420.792 193.828 420.822C193.872 421.019 193.954 421.215 193.968 421.416C193.994 421.825 194.123 422.231 194.123 422.641C194.123 422.759 194.227 422.92 194.333 423.003C194.607 423.211 194.91 423.399 195.205 423.594C195.509 423.802 195.818 423.992 196.111 424.212C196.712 424.653 197.334 425.069 197.959 425.477C198.061 425.542 198.132 425.561 198.248 425.536C198.665 425.473 199.078 425.435 199.503 425.42C199.723 425.412 199.952 425.491 200.129 425.431C200.347 425.36 200.523 425.463 200.716 425.463C200.915 425.464 201.106 425.448 201.302 425.478C201.884 425.568 202.463 425.672 203.038 425.844C203.462 425.97 203.86 426.149 204.281 426.275C204.406 426.454 204.554 426.352 204.682 426.317C205.069 426.203 205.463 426.179 205.866 426.263C206.073 426.303 206.282 426.332 206.479 426.368C206.7 426.408 206.917 426.474 207.132 426.484C207.354 426.491 207.503 426.636 207.697 426.675C207.904 426.714 208.105 426.797 208.305 426.855C208.697 426.973 209.062 427.139 209.44 427.274C209.41 427.486 209.386 427.669 209.354 427.856C209.328 428.005 209.388 428.085 209.541 428.154C209.74 428.247 209.931 428.359 210.119 428.466C210.252 428.535 210.371 428.633 210.508 428.67C210.75 428.735 211.005 428.768 211.252 428.816C211.496 428.856 211.742 428.91 212 428.944C212.468 425.813 212.918 422.724 213.364 419.646C213.656 419.65 213.927 419.658 214.221 419.666C214.228 419.613 214.236 419.557 214.242 419.501C214.368 418.625 214.505 417.757 214.618 416.888C214.647 416.642 214.775 416.549 215.029 416.478C215.351 416.392 215.686 416.487 216.003 416.414C216.481 416.567 216.974 416.498 217.45 416.599C217.806 416.674 218.156 416.718 218.502 416.873C218.79 416.997 219.129 416.993 219.449 417.067C219.764 417.144 220.077 417.251 220.395 417.335C220.636 417.399 220.885 417.408 221.106 417.551C221.17 417.597 221.278 417.583 221.385 417.593C221.438 417.272 221.48 416.98 221.526 416.671C222.273 416.818 223.004 416.949 223.726 417.108C224.255 417.22 224.793 417.25 225.3 417.498C225.491 417.587 225.702 417.656 225.914 417.705C226.127 417.754 226.317 417.868 226.513 417.941C226.706 418.013 226.916 418.039 227.088 418.128C227.552 418.381 228.078 418.455 228.554 418.676C228.758 418.774 228.985 418.855 229.213 418.898C229.446 418.943 229.64 419.059 229.861 419.168C229.043 424.125 228.212 429.083 227.361 434.033C227.837 434.131 228.294 434.223 228.77 434.322C228.882 433.663 228.994 433.03 229.108 432.378C229.351 432.43 229.579 432.479 229.824 432.532C229.872 432.249 229.917 431.984 229.967 431.704C230.194 431.595 230.433 431.496 230.644 431.375C230.896 431.227 231.199 431.163 231.466 431.148C231.781 431.126 232.052 430.971 232.375 431.025C232.512 431.048 232.655 430.964 232.797 430.952C233.123 430.912 233.127 430.917 233.167 430.673C233.523 428.67 233.873 426.668 234.226 424.666C234.242 424.541 234.266 424.417 234.287 424.28C235.06 424.444 235.797 424.603 236.565 424.764C236.663 424.216 236.755 423.687 236.852 423.152C239.869 423.799 242.849 424.447 245.831 425.14C246.121 425.206 246.413 425.329 246.687 425.47C246.916 425.582 247.162 425.649 247.418 425.748C247.608 424.744 247.794 423.768 247.977 422.797C248.987 422.965 249.958 423.256 250.957 423.398C251.945 423.541 252.919 423.849 253.903 424.061C254.876 424.273 255.827 424.603 256.82 424.679C257.078 424.7 257.327 424.795 257.585 424.855C258.279 425.021 258.97 425.19 259.715 425.37C259.409 425.652 259.128 425.889 258.874 426.146C258.69 426.331 258.493 426.516 258.484 426.805C258.476 426.959 258.43 427.108 258.394 427.276C258.754 427.363 259.078 427.441 259.437 427.528C259.334 428.045 259.23 428.541 259.121 429.057C259.483 429.145 259.81 429.223 260.166 429.313C259.358 433.183 258.546 437.035 257.725 440.889C257.786 440.903 257.815 440.91 257.846 440.919C258.168 440.996 258.168 440.996 258.357 440.718C258.519 440.476 258.683 440.238 258.887 439.936C259.03 440.394 259.151 440.783 259.296 441.267C259.347 441.032 259.378 440.894 259.41 440.757C259.656 439.619 259.91 438.48 260.139 437.333C260.366 436.198 260.704 435.092 260.769 433.923C261.54 430.301 262.302 426.68 263.05 423.05C263.08 422.927 263.102 422.805 263.135 422.649C263.304 422.689 263.457 422.727 263.62 422.769C263.71 422.336 263.793 421.928 263.865 421.587C264.158 421.448 264.395 421.329 264.647 421.207C264.764 420.666 264.877 420.12 264.996 419.541C265.416 419.642 265.823 419.746 266.227 419.845C266.295 419.634 266.314 419.449 266.434 419.276C266.54 419.129 266.555 418.919 266.656 418.748C266.916 418.314 267.258 417.931 267.724 417.683C268.289 417.383 268.938 417.261 269.677 417.405C269.715 417.221 269.758 417.026 269.797 416.847C269.936 416.874 270.047 416.894 270.191 416.922C270.285 416.467 270.378 416.025 270.466 415.594C270.715 415.658 270.914 415.707 271.134 415.763C271.083 416.002 271.035 416.226 270.987 416.447C270.947 416.667 270.889 416.888 270.857 417.121C271.071 417.178 271.242 417.22 271.428 417.269C271.389 417.461 271.349 417.644 271.311 417.824C271.878 418.079 272.4 418.4 272.793 418.817C273.194 419.242 273.512 419.734 273.641 420.296C273.769 420.853 273.692 421.377 273.565 421.916C273.865 421.993 274.129 422.063 274.42 422.139C274.377 422.317 274.335 422.484 274.303 422.65C274.264 422.819 274.226 422.991 274.19 423.157C274.155 423.322 274.125 423.486 274.087 423.669C274.39 423.744 274.656 423.814 274.935 423.89C274.825 424.39 274.715 424.88 274.61 425.369C274.955 425.532 275.101 425.755 274.952 426.068C274.948 426.079 274.945 426.095 274.946 426.109C273.671 431.807 272.374 437.491 271.058 443.176C271.03 443.298 271 443.416 270.977 443.518C271.366 443.736 271.744 443.867 272.161 443.939C272.195 443.789 272.227 443.648 272.264 443.512C274.834 432.49 277.329 421.441 279.745 410.37C279.792 410.157 279.877 409.977 280.054 409.803C280.505 409.371 280.891 408.888 281.319 408.43C281.449 408.295 281.534 408.164 281.518 407.961C281.483 407.578 281.457 407.192 281.396 406.812C281.372 406.674 281.363 406.547 281.476 406.469C281.855 406.212 282.107 405.859 282.399 405.538C282.576 405.347 282.774 405.215 283.038 405.152C283.156 405.124 283.262 405.089 283.38 405.056C283.598 404.995 283.81 404.932 284.049 404.861C284.205 404.144 284.368 403.397 284.535 402.65C284.738 402.706 284.923 402.755 285.119 402.807C285.031 403.217 284.937 403.61 284.859 404.007C284.785 404.393 284.649 404.762 284.632 405.195C285.709 405.087 286.74 404.993 287.774 404.892C288.42 402.001 289.06 399.118 289.694 396.236C289.892 396.286 290.096 396.338 290.287 396.396C289.649 399.292 289.005 402.184 288.359 405.056C288.677 405.253 288.942 405.447 289.235 405.595C289.525 405.75 289.738 406.012 290.104 406.109C290.231 405.564 290.35 405.042 290.466 404.52C290.676 404.576 290.852 404.625 291.063 404.681C290.932 405.249 290.807 405.806 290.688 406.322C291.816 406.964 292.902 407.592 294.014 408.237C293.629 408.496 293.255 408.747 292.874 408.997C292.803 409.3 292.732 409.617 292.653 409.968C292.851 410.024 293.036 410.076 293.226 410.129C292.926 410.419 292.659 410.699 292.467 411.068C292.735 411.144 292.959 411.204 293.183 411.268C293.4 411.337 293.631 411.374 293.835 411.474C291.347 422.063 288.787 432.606 286.155 443.122C286.141 443.194 286.134 443.268 286.1 443.328C286.041 443.442 286.078 443.555 286.127 443.656C286.364 444.192 286.443 444.765 286.693 445.296C286.743 445.405 286.754 445.563 286.71 445.704C286.584 446.112 286.492 446.531 286.384 446.96C286.557 447.011 286.693 447.047 286.854 447.097C286.733 447.574 286.613 448.044 286.495 448.509C286.635 448.479 286.753 448.463 286.863 448.436C287.544 448.238 288.242 448.387 288.939 448.498C289.169 448.533 289.367 448.682 289.579 448.757C289.953 448.891 290.296 449.075 290.682 449.264C291.722 445.275 292.751 441.295 293.761 437.318C296.689 438.168 299.584 439.027 302.485 439.9C302.45 440.078 302.413 440.239 302.377 440.411C310.214 442.778 318.003 445.258 325.788 447.861C324.736 451.348 323.681 454.817 322.621 458.284C322.619 458.298 322.626 458.31 322.629 458.326C322.633 458.339 322.648 458.349 322.656 458.362C322.831 458.362 323.005 458.352 323.183 458.353C323.375 458.354 323.564 458.345 323.755 458.373C323.935 458.4 324.114 458.441 324.291 458.47C324.684 458.551 325.062 458.719 325.444 458.843C325.599 458.892 325.716 459.01 325.845 459.062C326.342 459.262 326.726 459.599 327.168 459.893C327.312 459.826 327.461 459.751 327.611 459.694C327.95 459.556 328.315 459.653 328.666 459.672C328.861 459.857 329.168 459.906 329.314 460.16C329.354 460.228 329.43 460.289 329.496 460.35C329.553 460.402 329.53 460.527 329.67 460.532C330.44 458.101 331.207 455.676 331.968 453.248C332.317 453.265 332.652 453.344 332.98 453.373C333.303 453.398 333.637 453.448 333.964 453.48C334.297 453.512 334.633 453.698 334.987 453.819C335.079 453.522 335.161 453.265 335.241 453.012C336.315 453.331 338.402 454.082 338.773 454.282C338.648 454.673 338.518 455.067 338.384 455.474C339.564 455.888 340.713 456.301 341.895 456.722C341.845 456.87 341.806 457.006 341.758 457.139C340.987 459.494 340.213 461.841 339.433 464.192C339.402 464.289 339.349 464.383 339.344 464.48C339.337 464.558 339.361 464.695 339.411 464.715C339.711 464.846 339.861 465.118 340.09 465.302C340.184 465.376 340.258 465.411 340.377 465.398C340.608 465.357 340.846 465.381 341.081 465.382C341.758 465.384 342.312 465.601 342.669 466.221C342.921 466.124 343.078 465.901 343.374 465.901C340.434 474.603 337.453 483.263 334.415 491.922C270.742 468.625 205.556 454.034 140.765 447.879V447.879Z" fill="white"/>
<path d="M319.317 459.953L153.302 424.41L149.845 441.881L315.86 477.425L319.317 459.953Z" fill="white"/>
</g>
</svg>
